Nobel-Book_Italic.ufo
<glyph name="exclam" format="1">
  <advance width="200"/>
  <unicode hex="0021"/>
  <outline>
    <contour>
      <point x="198" y="730" type="line"/>
      <point x="133" y="361" type="line"/>
      <point x="80" y="141" type="line"/>
      <point x="39" y="141" type="line"/>
      <point x="63" y="361" type="line"/>
      <point x="128" y="730" type="line"/>
    </contour>
    <contour>
      <point x="86" y="96" type="line"/>
      <point x="70" y="0" type="line"/>
      <point x="-1" y="0" type="line"/>
      <point x="16" y="96" type="line"/>
    </contour>
  </outline>
</glyph>
<glyph name="quotedbl" format="1">
  <advance width="307"/>
  <unicode hex="0022"/>
  <outline>
    <contour>
      <point x="315" y="730" type="line"/>
      <point x="297" y="634" type="line"/>
      <point x="265" y="535" type="line"/>
      <point x="227" y="535" type="line"/>
      <point x="230" y="634" type="line"/>
      <point x="247" y="730" type="line"/>
    </contour>
    <contour>
      <point x="186" y="730" type="line"/>
      <point x="168" y="634" type="line"/>
      <point x="137" y="535" type="line"/>
      <point x="98" y="535" type="line"/>
      <point x="101" y="634" type="line"/>
      <point x="118" y="730" type="line"/>
    </contour>
  </outline>
</glyph>
<glyph name="numbersign" format="1">
  <advance width="600"/>
  <unicode hex="0023"/>
  <outline>
    <contour>
      <point x="584" y="515" type="line"/>
      <point x="577" y="462" type="line"/>
      <point x="469" y="462" type="line"/>
      <point x="424" y="271" type="line"/>
      <point x="549" y="271" type="line"/>
      <point x="542" y="218" type="line"/>
      <point x="412" y="218" type="line"/>
      <point x="361" y="0" type="line"/>
      <point x="298" y="0" type="line"/>
      <point x="348" y="218" type="line"/>
      <point x="184" y="218" type="line"/>
      <point x="133" y="0" type="line"/>
      <point x="69" y="0" type="line"/>
      <point x="120" y="218" type="line"/>
      <point x="16" y="218" type="line"/>
      <point x="23" y="271" type="line"/>
      <point x="132" y="271" type="line"/>
      <point x="177" y="462" type="line"/>
      <point x="51" y="462" type="line"/>
      <point x="58" y="515" type="line"/>
      <point x="189" y="515" type="line"/>
      <point x="239" y="730" type="line"/>
      <point x="302" y="730" type="line"/>
      <point x="252" y="515" type="line"/>
      <point x="417" y="515" type="line"/>
      <point x="467" y="730" type="line"/>
      <point x="530" y="730" type="line"/>
      <point x="480" y="515" type="line"/>
    </contour>
    <contour>
      <point x="406" y="462" type="line"/>
      <point x="240" y="462" type="line"/>
      <point x="195" y="271" type="line"/>
      <point x="360" y="271" type="line"/>
    </contour>
  </outline>
</glyph>
<glyph name="dollar" format="1">
  <advance width="486"/>
  <unicode hex="0024"/>
  <outline>
    <contour>
      <point x="480" y="657" type="curve"/>
      <point x="431" y="606" type="line"/>
      <point x="401" y="643"/>
      <point x="364" y="660"/>
      <point x="320" y="666" type="curve"/>
      <point x="275" y="401" type="line"/>
      <point x="363" y="344"/>
      <point x="421" y="298"/>
      <point x="421" y="206" type="curve" smooth="yes"/>
      <point x="421" y="82"/>
      <point x="327" y="7"/>
      <point x="203" y="0" type="curve"/>
      <point x="191" y="-73" type="line"/>
      <point x="140" y="-73" type="line"/>
      <point x="153" y="0" type="line"/>
      <point x="89" y="7"/>
      <point x="28" y="35"/>
      <point x="-12" y="76" type="curve"/>
      <point x="35" y="127" type="line"/>
      <point x="66" y="94"/>
      <point x="114" y="70"/>
      <point x="164" y="64" type="curve"/>
      <point x="217" y="359" type="line"/>
      <point x="144" y="406"/>
      <point x="80" y="454"/>
      <point x="80" y="538" type="curve" smooth="yes"/>
      <point x="80" y="649"/>
      <point x="164" y="724"/>
      <point x="281" y="730" type="curve"/>
      <point x="291" y="786" type="line"/>
      <point x="342" y="786" type="line"/>
      <point x="331" y="730" type="line"/>
      <point x="392" y="724"/>
      <point x="442" y="700"/>
    </contour>
    <contour>
      <point x="270" y="666" type="line"/>
      <point x="198" y="659"/>
      <point x="147" y="617"/>
      <point x="147" y="547" type="curve" smooth="yes"/>
      <point x="147" y="502"/>
      <point x="175" y="467"/>
      <point x="229" y="430" type="curve"/>
    </contour>
    <contour>
      <point x="352" y="192" type="curve" smooth="yes"/>
      <point x="352" y="253"/>
      <point x="322" y="287"/>
      <point x="262" y="330" type="curve"/>
      <point x="214" y="64" type="line"/>
      <point x="293" y="71"/>
      <point x="352" y="115"/>
    </contour>
  </outline>
</glyph>
<glyph name="percent" format="1">
  <advance width="726"/>
  <unicode hex="0025"/>
  <outline>
    <contour>
      <point x="360" y="600" type="curve" smooth="yes"/>
      <point x="360" y="468"/>
      <point x="277" y="365"/>
      <point x="189" y="365" type="curve" smooth="yes"/>
      <point x="118" y="365"/>
      <point x="70" y="414"/>
      <point x="70" y="509" type="curve" smooth="yes"/>
      <point x="70" y="639"/>
      <point x="154" y="742"/>
      <point x="240" y="742" type="curve" smooth="yes"/>
      <point x="320" y="742"/>
      <point x="360" y="685"/>
    </contour>
    <contour>
      <point x="692" y="730" type="line"/>
      <point x="105" y="0" type="line"/>
      <point x="33" y="0" type="line"/>
      <point x="620" y="730" type="line"/>
    </contour>
    <contour>
      <point x="654" y="223" type="curve" smooth="yes"/>
      <point x="654" y="91"/>
      <point x="571" y="-12"/>
      <point x="484" y="-12" type="curve" smooth="yes"/>
      <point x="412" y="-12"/>
      <point x="364" y="37"/>
      <point x="364" y="132" type="curve" smooth="yes"/>
      <point x="364" y="262"/>
      <point x="448" y="365"/>
      <point x="535" y="365" type="curve" smooth="yes"/>
      <point x="614" y="365"/>
      <point x="654" y="308"/>
    </contour>
    <contour>
      <point x="299" y="592" type="curve" smooth="yes"/>
      <point x="299" y="652"/>
      <point x="276" y="690"/>
      <point x="235" y="690" type="curve" smooth="yes"/>
      <point x="178" y="690"/>
      <point x="130" y="611"/>
      <point x="130" y="514" type="curve" smooth="yes"/>
      <point x="130" y="453"/>
      <point x="154" y="417"/>
      <point x="195" y="417" type="curve" smooth="yes"/>
      <point x="253" y="417"/>
      <point x="299" y="499"/>
    </contour>
    <contour>
      <point x="593" y="215" type="curve" smooth="yes"/>
      <point x="593" y="275"/>
      <point x="570" y="313"/>
      <point x="529" y="313" type="curve" smooth="yes"/>
      <point x="472" y="313"/>
      <point x="424" y="234"/>
      <point x="424" y="137" type="curve" smooth="yes"/>
      <point x="424" y="76"/>
      <point x="449" y="40"/>
      <point x="489" y="40" type="curve" smooth="yes"/>
      <point x="548" y="40"/>
      <point x="593" y="122"/>
    </contour>
  </outline>
</glyph>
<glyph name="ampersand" format="1">
  <advance width="619"/>
  <unicode hex="0026"/>
  <outline>
    <contour>
      <point x="553" y="202" type="line"/>
      <point x="524" y="172"/>
      <point x="496" y="144"/>
      <point x="466" y="118" type="curve"/>
      <point x="547" y="0" type="line"/>
      <point x="464" y="0" type="line"/>
      <point x="412" y="76" type="line"/>
      <point x="340" y="22"/>
      <point x="265" y="-12"/>
      <point x="184" y="-12" type="curve" smooth="yes"/>
      <point x="75" y="-12"/>
      <point x="8" y="61"/>
      <point x="8" y="151" type="curve" smooth="yes"/>
      <point x="8" y="254"/>
      <point x="82" y="331"/>
      <point x="196" y="397" type="curve"/>
      <point x="180" y="419" type="line" smooth="yes"/>
      <point x="145" y="467"/>
      <point x="127" y="511"/>
      <point x="127" y="564" type="curve" smooth="yes"/>
      <point x="127" y="668"/>
      <point x="221" y="742"/>
      <point x="313" y="742" type="curve" smooth="yes"/>
      <point x="397" y="742"/>
      <point x="460" y="689"/>
      <point x="460" y="608" type="curve" smooth="yes"/>
      <point x="460" y="512"/>
      <point x="385" y="446"/>
      <point x="284" y="384" type="curve"/>
      <point x="432" y="167" type="line"/>
      <point x="459" y="191"/>
      <point x="485" y="218"/>
      <point x="512" y="247" type="curve"/>
    </contour>
    <contour>
      <point x="394" y="600" type="curve" smooth="yes"/>
      <point x="394" y="654"/>
      <point x="358" y="684"/>
      <point x="304" y="684" type="curve" smooth="yes"/>
      <point x="251" y="684"/>
      <point x="195" y="636"/>
      <point x="195" y="568" type="curve" smooth="yes"/>
      <point x="195" y="528"/>
      <point x="211" y="493"/>
      <point x="236" y="455" type="curve" smooth="yes"/>
      <point x="252" y="431" type="line"/>
      <point x="336" y="480"/>
      <point x="394" y="533"/>
    </contour>
    <contour>
      <point x="380" y="125" type="curve"/>
      <point x="227" y="349" type="line"/>
      <point x="131" y="292"/>
      <point x="78" y="233"/>
      <point x="78" y="164" type="curve" smooth="yes"/>
      <point x="78" y="100"/>
      <point x="121" y="49"/>
      <point x="195" y="49" type="curve" smooth="yes"/>
      <point x="258" y="49"/>
      <point x="317" y="77"/>
    </contour>
  </outline>
</glyph>
<glyph name="quotesingle" format="1">
  <advance width="178"/>
  <unicode hex="0027"/>
  <outline>
    <contour>
      <point x="185" y="730" type="line"/>
      <point x="167" y="634" type="line"/>
      <point x="136" y="535" type="line"/>
      <point x="97" y="535" type="line"/>
      <point x="100" y="634" type="line"/>
      <point x="117" y="730" type="line"/>
    </contour>
  </outline>
</glyph>
<glyph name="parenleft" format="1">
  <advance width="299"/>
  <unicode hex="0028"/>
  <outline>
    <contour>
      <point x="351" y="762" type="curve"/>
      <point x="342" y="710" type="line"/>
      <point x="204" y="608"/>
      <point x="86" y="407"/>
      <point x="86" y="180" type="curve" smooth="yes"/>
      <point x="86" y="77"/>
      <point x="112" y="-39"/>
      <point x="192" y="-137" type="curve"/>
      <point x="183" y="-188" type="line"/>
      <point x="74" y="-94"/>
      <point x="18" y="45"/>
      <point x="18" y="187" type="curve" smooth="yes"/>
      <point x="18" y="450"/>
      <point x="175" y="655"/>
    </contour>
  </outline>
</glyph>
<glyph name="parenright" format="1">
  <advance width="299"/>
  <unicode hex="0029"/>
  <outline>
    <contour>
      <point x="257" y="387" type="curve" smooth="yes"/>
      <point x="257" y="124"/>
      <point x="100" y="-80"/>
      <point x="-76" y="-187" type="curve"/>
      <point x="-67" y="-136" type="line"/>
      <point x="71" y="-33"/>
      <point x="189" y="167"/>
      <point x="189" y="395" type="curve" smooth="yes"/>
      <point x="189" y="497"/>
      <point x="163" y="614"/>
      <point x="83" y="711" type="curve"/>
      <point x="92" y="762" type="line"/>
      <point x="201" y="668"/>
      <point x="257" y="529"/>
    </contour>
  </outline>
</glyph>
<glyph name="asterisk" format="1">
  <advance width="393"/>
  <unicode hex="002A"/>
  <outline>
    <contour>
      <point x="390" y="566" type="line"/>
      <point x="376" y="525" type="line"/>
      <point x="259" y="561" type="line"/>
      <point x="257" y="438" type="line"/>
      <point x="214" y="438" type="line"/>
      <point x="213" y="561" type="line"/>
      <point x="95" y="525" type="line"/>
      <point x="80" y="566" type="line"/>
      <point x="196" y="607" type="line"/>
      <point x="127" y="707" type="line"/>
      <point x="161" y="733" type="line"/>
      <point x="235" y="635" type="line"/>
      <point x="309" y="732" type="line"/>
      <point x="345" y="708" type="line"/>
      <point x="274" y="606" type="line"/>
    </contour>
  </outline>
</glyph>
<glyph name="plus" format="1">
  <advance width="480"/>
  <unicode hex="002B"/>
  <outline>
    <contour>
      <point x="443" y="361" type="line"/>
      <point x="432" y="300" type="line"/>
      <point x="257" y="300" type="line"/>
      <point x="226" y="125" type="line"/>
      <point x="162" y="125" type="line"/>
      <point x="192" y="300" type="line"/>
      <point x="18" y="300" type="line"/>
      <point x="29" y="361" type="line"/>
      <point x="204" y="361" type="line"/>
      <point x="234" y="537" type="line"/>
      <point x="299" y="537" type="line"/>
      <point x="268" y="361" type="line"/>
    </contour>
  </outline>
</glyph>
<glyph name="comma" format="1">
  <advance width="177"/>
  <unicode hex="002C"/>
  <outline>
    <contour>
      <point x="76" y="96" type="line"/>
      <point x="62" y="15" type="line" smooth="yes"/>
      <point x="48" y="-64"/>
      <point x="5" y="-117"/>
      <point x="-29" y="-147" type="curve"/>
      <point x="-72" y="-147" type="line"/>
      <point x="-42" y="-112"/>
      <point x="-24" y="-68"/>
      <point x="-13" y="-8" type="curve" smooth="yes"/>
      <point x="6" y="96" type="line"/>
    </contour>
  </outline>
</glyph>
<glyph name="slash" format="1">
  <advance width="376"/>
  <unicode hex="002F"/>
  <outline>
    <contour>
      <point x="411" y="730" type="line"/>
      <point x="29" y="0" type="line"/>
      <point x="-35" y="0" type="line"/>
      <point x="347" y="730" type="line"/>
    </contour>
  </outline>
</glyph>
<glyph name="zero" format="1">
  <advance width="588"/>
  <unicode hex="0030"/>
  <outline>
    <contour>
      <point x="563" y="472" type="curve" smooth="yes"/>
      <point x="563" y="230"/>
      <point x="445" y="-12"/>
      <point x="239" y="-12" type="curve" smooth="yes"/>
      <point x="107" y="-12"/>
      <point x="29" y="86"/>
      <point x="29" y="266" type="curve" smooth="yes"/>
      <point x="29" y="521"/>
      <point x="158" y="742"/>
      <point x="351" y="742" type="curve" smooth="yes"/>
      <point x="491" y="742"/>
      <point x="563" y="638"/>
    </contour>
    <contour>
      <point x="490" y="462" type="curve" smooth="yes"/>
      <point x="490" y="603"/>
      <point x="439" y="679"/>
      <point x="341" y="679" type="curve" smooth="yes"/>
      <point x="202" y="679"/>
      <point x="102" y="486"/>
      <point x="102" y="273" type="curve" smooth="yes"/>
      <point x="102" y="127"/>
      <point x="153" y="51"/>
      <point x="251" y="51" type="curve" smooth="yes"/>
      <point x="396" y="51"/>
      <point x="490" y="255"/>
    </contour>
  </outline>
</glyph>
<glyph name="one" format="1">
  <advance width="282"/>
  <unicode hex="0031"/>
  <outline>
    <contour>
      <point x="276" y="730" type="line"/>
      <point x="147" y="0" type="line"/>
      <point x="80" y="0" type="line"/>
      <point x="188" y="613" type="line"/>
      <point x="157" y="582"/>
      <point x="99" y="555"/>
      <point x="48" y="549" type="curve"/>
      <point x="59" y="610" type="line"/>
      <point x="117" y="618"/>
      <point x="188" y="666"/>
      <point x="226" y="730" type="curve"/>
    </contour>
  </outline>
</glyph>
<glyph name="two" format="1">
  <advance width="527"/>
  <unicode hex="0032"/>
  <outline>
    <contour>
      <point x="505" y="564" type="curve" smooth="yes"/>
      <point x="505" y="482"/>
      <point x="465" y="421"/>
      <point x="390" y="345" type="curve" smooth="yes"/>
      <point x="116" y="65" type="line"/>
      <point x="432" y="65" type="line"/>
      <point x="420" y="0" type="line"/>
      <point x="-32" y="0" type="line"/>
      <point x="341" y="383" type="line" smooth="yes"/>
      <point x="400" y="444"/>
      <point x="434" y="498"/>
      <point x="434" y="558" type="curve" smooth="yes"/>
      <point x="434" y="632"/>
      <point x="381" y="678"/>
      <point x="305" y="678" type="curve" smooth="yes"/>
      <point x="213" y="678"/>
      <point x="162" y="620"/>
      <point x="138" y="530" type="curve"/>
      <point x="68" y="530" type="line"/>
      <point x="99" y="665"/>
      <point x="193" y="742"/>
      <point x="314" y="742" type="curve" smooth="yes"/>
      <point x="423" y="742"/>
      <point x="505" y="676"/>
    </contour>
  </outline>
</glyph>
<glyph name="three" format="1">
  <advance width="551"/>
  <unicode hex="0033"/>
  <outline>
    <contour>
      <point x="520" y="588" type="curve" smooth="yes"/>
      <point x="520" y="483"/>
      <point x="453" y="418"/>
      <point x="377" y="390" type="curve"/>
      <point x="444" y="369"/>
      <point x="486" y="311"/>
      <point x="486" y="239" type="curve" smooth="yes"/>
      <point x="486" y="109"/>
      <point x="386" y="-12"/>
      <point x="209" y="-12" type="curve" smooth="yes"/>
      <point x="99" y="-12"/>
      <point x="21" y="29"/>
      <point x="-26" y="90" type="curve"/>
      <point x="24" y="138" type="line"/>
      <point x="71" y="79"/>
      <point x="133" y="49"/>
      <point x="216" y="49" type="curve" smooth="yes"/>
      <point x="339" y="49"/>
      <point x="416" y="130"/>
      <point x="416" y="234" type="curve" smooth="yes"/>
      <point x="416" y="313"/>
      <point x="358" y="362"/>
      <point x="255" y="362" type="curve" smooth="yes"/>
      <point x="191" y="362" type="line"/>
      <point x="202" y="422" type="line"/>
      <point x="269" y="422" type="line" smooth="yes"/>
      <point x="377" y="422"/>
      <point x="451" y="482"/>
      <point x="451" y="571" type="curve" smooth="yes"/>
      <point x="451" y="628"/>
      <point x="414" y="679"/>
      <point x="320" y="679" type="curve" smooth="yes"/>
      <point x="240" y="679"/>
      <point x="183" y="636"/>
      <point x="144" y="590" type="curve"/>
      <point x="93" y="624" type="line"/>
      <point x="144" y="686"/>
      <point x="218" y="741"/>
      <point x="331" y="741" type="curve" smooth="yes"/>
      <point x="455" y="741"/>
      <point x="520" y="671"/>
    </contour>
  </outline>
</glyph>
<glyph name="four" format="1">
  <advance width="542"/>
  <unicode hex="0034"/>
  <outline>
    <contour>
      <point x="508" y="245" type="line"/>
      <point x="497" y="185" type="line"/>
      <point x="387" y="185" type="line"/>
      <point x="354" y="0" type="line"/>
      <point x="288" y="0" type="line"/>
      <point x="320" y="185" type="line"/>
      <point x="-6" y="185" type="line"/>
      <point x="2" y="234" type="line"/>
      <point x="434" y="730" type="line"/>
      <point x="483" y="730" type="line"/>
      <point x="397" y="245" type="line"/>
    </contour>
    <contour>
      <point x="394" y="604" type="line"/>
      <point x="88" y="245" type="line"/>
      <point x="331" y="245" type="line"/>
    </contour>
  </outline>
</glyph>
<glyph name="five" format="1">
  <advance width="568"/>
  <unicode hex="0035"/>
  <outline>
    <contour>
      <point x="538" y="730" type="line"/>
      <point x="527" y="669" type="line"/>
      <point x="216" y="669" type="line"/>
      <point x="162" y="447" type="line"/>
      <point x="200" y="478"/>
      <point x="244" y="500"/>
      <point x="306" y="500" type="curve" smooth="yes"/>
      <point x="429" y="500"/>
      <point x="509" y="417"/>
      <point x="509" y="300" type="curve" smooth="yes"/>
      <point x="509" y="112"/>
      <point x="372" y="-12"/>
      <point x="212" y="-12" type="curve" smooth="yes"/>
      <point x="112" y="-12"/>
      <point x="33" y="38"/>
      <point x="-9" y="89" type="curve"/>
      <point x="38" y="139" type="line"/>
      <point x="79" y="91"/>
      <point x="138" y="52"/>
      <point x="223" y="52" type="curve" smooth="yes"/>
      <point x="342" y="52"/>
      <point x="437" y="153"/>
      <point x="437" y="288" type="curve" smooth="yes"/>
      <point x="437" y="372"/>
      <point x="385" y="439"/>
      <point x="290" y="439" type="curve" smooth="yes"/>
      <point x="222" y="439"/>
      <point x="166" y="402"/>
      <point x="127" y="347" type="curve"/>
      <point x="73" y="356" type="line"/>
      <point x="164" y="730" type="line"/>
    </contour>
  </outline>
</glyph>
<glyph name="six" format="1">
  <advance width="553"/>
  <unicode hex="0036"/>
  <outline>
    <contour>
      <point x="504" y="276" type="curve" smooth="yes"/>
      <point x="504" y="112"/>
      <point x="377" y="-12"/>
      <point x="226" y="-12" type="curve" smooth="yes"/>
      <point x="107" y="-12"/>
      <point x="15" y="61"/>
      <point x="15" y="198" type="curve" smooth="yes"/>
      <point x="15" y="364"/>
      <point x="150" y="555"/>
      <point x="325" y="730" type="curve"/>
      <point x="408" y="730" type="line"/>
      <point x="297" y="630"/>
      <point x="186" y="491"/>
      <point x="145" y="412" type="curve"/>
      <point x="188" y="451"/>
      <point x="245" y="474"/>
      <point x="310" y="474" type="curve" smooth="yes"/>
      <point x="420" y="474"/>
      <point x="504" y="400"/>
    </contour>
    <contour>
      <point x="435" y="265" type="curve" smooth="yes"/>
      <point x="435" y="360"/>
      <point x="382" y="415"/>
      <point x="291" y="415" type="curve" smooth="yes"/>
      <point x="181" y="415"/>
      <point x="84" y="321"/>
      <point x="84" y="200" type="curve" smooth="yes"/>
      <point x="84" y="102"/>
      <point x="148" y="51"/>
      <point x="239" y="51" type="curve" smooth="yes"/>
      <point x="347" y="51"/>
      <point x="435" y="147"/>
    </contour>
  </outline>
</glyph>
<glyph name="seven" format="1">
  <advance width="506"/>
  <unicode hex="0037"/>
  <outline>
    <contour>
      <point x="543" y="730" type="line"/>
      <point x="80" y="0" type="line"/>
      <point x="4" y="0" type="line"/>
      <point x="430" y="668" type="line"/>
      <point x="93" y="668" type="line"/>
      <point x="105" y="730" type="line"/>
    </contour>
  </outline>
</glyph>
<glyph name="eight" format="1">
  <advance width="594"/>
  <unicode hex="0038"/>
  <outline>
    <contour>
      <point x="558" y="576" type="curve" smooth="yes"/>
      <point x="558" y="472"/>
      <point x="483" y="407"/>
      <point x="420" y="384" type="curve"/>
      <point x="481" y="362"/>
      <point x="531" y="307"/>
      <point x="531" y="227" type="curve" smooth="yes"/>
      <point x="531" y="87"/>
      <point x="408" y="-11"/>
      <point x="246" y="-11" type="curve" smooth="yes"/>
      <point x="107" y="-11"/>
      <point x="11" y="60"/>
      <point x="11" y="175" type="curve" smooth="yes"/>
      <point x="11" y="284"/>
      <point x="95" y="369"/>
      <point x="187" y="391" type="curve"/>
      <point x="139" y="416"/>
      <point x="106" y="463"/>
      <point x="106" y="525" type="curve" smooth="yes"/>
      <point x="106" y="644"/>
      <point x="213" y="742"/>
      <point x="359" y="742" type="curve" smooth="yes"/>
      <point x="486" y="742"/>
      <point x="558" y="666"/>
    </contour>
    <contour>
      <point x="487" y="569" type="curve" smooth="yes"/>
      <point x="487" y="639"/>
      <point x="437" y="681"/>
      <point x="347" y="681" type="curve" smooth="yes"/>
      <point x="242" y="681"/>
      <point x="176" y="610"/>
      <point x="176" y="528" type="curve" smooth="yes"/>
      <point x="176" y="457"/>
      <point x="226" y="412"/>
      <point x="317" y="412" type="curve" smooth="yes"/>
      <point x="421" y="412"/>
      <point x="487" y="481"/>
    </contour>
    <contour>
      <point x="460" y="222" type="curve" smooth="yes"/>
      <point x="460" y="302"/>
      <point x="397" y="351"/>
      <point x="290" y="352" type="curve" smooth="yes"/>
      <point x="166" y="353"/>
      <point x="83" y="280"/>
      <point x="83" y="183" type="curve" smooth="yes"/>
      <point x="83" y="96"/>
      <point x="154" y="51"/>
      <point x="254" y="51" type="curve" smooth="yes"/>
      <point x="379" y="51"/>
      <point x="460" y="124"/>
    </contour>
  </outline>
</glyph>
<glyph name="nine" format="1">
  <advance width="555"/>
  <unicode hex="0039"/>
  <outline>
    <contour>
      <point x="537" y="533" type="curve" smooth="yes"/>
      <point x="537" y="342"/>
      <point x="372" y="135"/>
      <point x="215" y="-18" type="curve"/>
      <point x="165" y="25" type="line"/>
      <point x="251" y="99"/>
      <point x="351" y="220"/>
      <point x="397" y="297" type="curve"/>
      <point x="353" y="258"/>
      <point x="299" y="240"/>
      <point x="242" y="240" type="curve" smooth="yes"/>
      <point x="130" y="240"/>
      <point x="44" y="318"/>
      <point x="44" y="454" type="curve" smooth="yes"/>
      <point x="44" y="611"/>
      <point x="172" y="741"/>
      <point x="324" y="741" type="curve" smooth="yes"/>
      <point x="458" y="741"/>
      <point x="537" y="656"/>
    </contour>
    <contour>
      <point x="464" y="525" type="curve" smooth="yes"/>
      <point x="464" y="622"/>
      <point x="411" y="679"/>
      <point x="313" y="679" type="curve" smooth="yes"/>
      <point x="197" y="679"/>
      <point x="116" y="574"/>
      <point x="116" y="462" type="curve" smooth="yes"/>
      <point x="116" y="356"/>
      <point x="173" y="302"/>
      <point x="262" y="302" type="curve" smooth="yes"/>
      <point x="375" y="302"/>
      <point x="464" y="392"/>
    </contour>
  </outline>
</glyph>
<glyph name="colon" format="1">
  <advance width="177"/>
  <unicode hex="003A"/>
  <outline>
    <contour>
      <point x="133" y="421" type="line"/>
      <point x="115" y="325" type="line"/>
      <point x="46" y="325" type="line"/>
      <point x="63" y="421" type="line"/>
    </contour>
    <contour>
      <point x="76" y="96" type="line"/>
      <point x="58" y="0" type="line"/>
      <point x="-11" y="0" type="line"/>
      <point x="6" y="96" type="line"/>
    </contour>
  </outline>
</glyph>
<glyph name="semicolon" format="1">
  <advance width="177"/>
  <unicode hex="003B"/>
  <outline>
    <contour>
      <point x="133" y="421" type="line"/>
      <point x="115" y="325" type="line"/>
      <point x="46" y="325" type="line"/>
      <point x="63" y="421" type="line"/>
    </contour>
    <contour>
      <point x="76" y="96" type="line"/>
      <point x="62" y="15" type="line" smooth="yes"/>
      <point x="48" y="-64"/>
      <point x="5" y="-117"/>
      <point x="-29" y="-147" type="curve"/>
      <point x="-72" y="-147" type="line"/>
      <point x="-42" y="-112"/>
      <point x="-24" y="-68"/>
      <point x="-13" y="-8" type="curve" smooth="yes"/>
      <point x="6" y="96" type="line"/>
    </contour>
  </outline>
</glyph>
<glyph name="less" format="1">
  <advance width="354"/>
  <unicode hex="003C"/>
  <outline>
    <contour>
      <point x="339" y="545" type="line"/>
      <point x="325" y="468" type="line"/>
      <point x="87" y="324" type="line"/>
      <point x="273" y="174" type="line"/>
      <point x="261" y="102" type="line"/>
      <point x="24" y="296" type="line"/>
      <point x="34" y="353" type="line"/>
    </contour>
  </outline>
</glyph>
<glyph name="equal" format="1">
  <advance width="482"/>
  <unicode hex="003D"/>
  <outline>
    <contour>
      <point x="434" y="449" type="line"/>
      <point x="424" y="388" type="line"/>
      <point x="67" y="388" type="line"/>
      <point x="78" y="449" type="line"/>
    </contour>
    <contour>
      <point x="404" y="278" type="line"/>
      <point x="394" y="217" type="line"/>
      <point x="37" y="217" type="line"/>
      <point x="48" y="278" type="line"/>
    </contour>
  </outline>
</glyph>
<glyph name="greater" format="1">
  <advance width="354"/>
  <unicode hex="003E"/>
  <outline>
    <contour>
      <point x="313" y="351" type="line"/>
      <point x="303" y="294" type="line"/>
      <point x="-2" y="102" type="line"/>
      <point x="12" y="179" type="line"/>
      <point x="250" y="323" type="line"/>
      <point x="63" y="473" type="line"/>
      <point x="76" y="545" type="line"/>
    </contour>
  </outline>
</glyph>
<glyph name="question" format="1">
  <advance width="439"/>
  <unicode hex="003F"/>
  <outline>
    <contour>
      <point x="434" y="589" type="curve" smooth="yes"/>
      <point x="434" y="499"/>
      <point x="388" y="445"/>
      <point x="301" y="352" type="curve" smooth="yes"/>
      <point x="246" y="292"/>
      <point x="214" y="238"/>
      <point x="201" y="166" type="curve" smooth="yes"/>
      <point x="197" y="144" type="line"/>
      <point x="131" y="144" type="line"/>
      <point x="135" y="166" type="line" smooth="yes"/>
      <point x="152" y="257"/>
      <point x="188" y="316"/>
      <point x="257" y="390" type="curve" smooth="yes"/>
      <point x="331" y="470"/>
      <point x="363" y="515"/>
      <point x="363" y="575" type="curve" smooth="yes"/>
      <point x="363" y="638"/>
      <point x="322" y="680"/>
      <point x="256" y="680" type="curve" smooth="yes"/>
      <point x="200" y="680"/>
      <point x="151" y="652"/>
      <point x="111" y="604" type="curve"/>
      <point x="71" y="649" type="line"/>
      <point x="126" y="714"/>
      <point x="192" y="742"/>
      <point x="264" y="742" type="curve" smooth="yes"/>
      <point x="366" y="742"/>
      <point x="434" y="680"/>
    </contour>
    <contour>
      <point x="191" y="96" type="line"/>
      <point x="174" y="0" type="line"/>
      <point x="104" y="0" type="line"/>
      <point x="121" y="96" type="line"/>
    </contour>
  </outline>
</glyph>
<glyph name="at" format="1">
  <advance width="844"/>
  <unicode hex="0040"/>
  <outline>
    <contour>
      <point x="799" y="395" type="curve" smooth="yes"/>
      <point x="799" y="228"/>
      <point x="701" y="158"/>
      <point x="629" y="158" type="curve" smooth="yes"/>
      <point x="581" y="158"/>
      <point x="553" y="181"/>
      <point x="544" y="215" type="curve"/>
      <point x="509" y="185"/>
      <point x="455" y="158"/>
      <point x="388" y="158" type="curve" smooth="yes"/>
      <point x="298" y="158"/>
      <point x="239" y="211"/>
      <point x="239" y="290" type="curve" smooth="yes"/>
      <point x="239" y="382"/>
      <point x="319" y="434"/>
      <point x="450" y="434" type="curve" smooth="yes"/>
      <point x="540" y="434" type="line"/>
      <point x="540" y="452" type="line" smooth="yes"/>
      <point x="540" y="525"/>
      <point x="491" y="540"/>
      <point x="429" y="540" type="curve" smooth="yes"/>
      <point x="379" y="540"/>
      <point x="337" y="531"/>
      <point x="303" y="513" type="curve"/>
      <point x="281" y="557" type="line"/>
      <point x="319" y="579"/>
      <point x="373" y="590"/>
      <point x="424" y="590" type="curve" smooth="yes"/>
      <point x="536" y="590"/>
      <point x="593" y="550"/>
      <point x="593" y="456" type="curve" smooth="yes"/>
      <point x="593" y="243" type="line" smooth="yes"/>
      <point x="593" y="212"/>
      <point x="609" y="201"/>
      <point x="639" y="201" type="curve" smooth="yes"/>
      <point x="686" y="201"/>
      <point x="755" y="260"/>
      <point x="755" y="393" type="curve" smooth="yes"/>
      <point x="755" y="552"/>
      <point x="630" y="698"/>
      <point x="422" y="698" type="curve" smooth="yes"/>
      <point x="238" y="698"/>
      <point x="88" y="549"/>
      <point x="88" y="364" type="curve" smooth="yes"/>
      <point x="88" y="184"/>
      <point x="238" y="30"/>
      <point x="422" y="30" type="curve" smooth="yes"/>
      <point x="461" y="30"/>
      <point x="506" y="36"/>
      <point x="556" y="60" type="curve"/>
      <point x="574" y="21" type="line"/>
      <point x="519" y="-4"/>
      <point x="468" y="-12"/>
      <point x="422" y="-12" type="curve" smooth="yes"/>
      <point x="214" y="-12"/>
      <point x="45" y="157"/>
      <point x="45" y="365" type="curve" smooth="yes"/>
      <point x="45" y="573"/>
      <point x="214" y="742"/>
      <point x="422" y="742" type="curve" smooth="yes"/>
      <point x="646" y="742"/>
      <point x="799" y="587"/>
    </contour>
    <contour>
      <point x="539" y="267" type="curve"/>
      <point x="539" y="386" type="line"/>
      <point x="452" y="386" type="line" smooth="yes"/>
      <point x="353" y="386"/>
      <point x="299" y="355"/>
      <point x="299" y="292" type="curve" smooth="yes"/>
      <point x="299" y="243"/>
      <point x="332" y="210"/>
      <point x="400" y="210" type="curve" smooth="yes"/>
      <point x="451" y="210"/>
      <point x="505" y="236"/>
    </contour>
  </outline>
</glyph>
<glyph name="A" format="1">
  <advance width="643"/>
  <unicode hex="0041"/>
  <outline>
    <contour>
      <point x="549" y="0" type="line"/>
      <point x="475" y="0" type="line"/>
      <point x="428" y="260" type="line"/>
      <point x="178" y="260" type="line"/>
      <point x="37" y="0" type="line"/>
      <point x="-35" y="0" type="line"/>
      <point x="365" y="737" type="line"/>
      <point x="408" y="737" type="line"/>
    </contour>
    <contour>
      <point x="417" y="323" type="line"/>
      <point x="366" y="619" type="line"/>
      <point x="212" y="323" type="line"/>
    </contour>
  </outline>
</glyph>
<glyph name="B" format="1">
  <advance width="557"/>
  <unicode hex="0042"/>
  <outline>
    <contour>
      <point x="499" y="572" type="curve" smooth="yes"/>
      <point x="499" y="477"/>
      <point x="435" y="405"/>
      <point x="358" y="378" type="curve"/>
      <point x="429" y="363"/>
      <point x="490" y="310"/>
      <point x="490" y="223" type="curve" smooth="yes"/>
      <point x="490" y="89"/>
      <point x="372" y="0"/>
      <point x="219" y="0" type="curve" smooth="yes"/>
      <point x="9" y="0" type="line"/>
      <point x="138" y="730" type="line"/>
      <point x="308" y="730" type="line" smooth="yes"/>
      <point x="438" y="730"/>
      <point x="499" y="662"/>
    </contour>
    <contour>
      <point x="428" y="560" type="curve" smooth="yes"/>
      <point x="428" y="629"/>
      <point x="383" y="668"/>
      <point x="290" y="668" type="curve" smooth="yes"/>
      <point x="195" y="668" type="line"/>
      <point x="148" y="403" type="line"/>
      <point x="244" y="403" type="line" smooth="yes"/>
      <point x="360" y="403"/>
      <point x="428" y="476"/>
    </contour>
    <contour>
      <point x="419" y="219" type="curve" smooth="yes"/>
      <point x="419" y="296"/>
      <point x="356" y="341"/>
      <point x="258" y="341" type="curve" smooth="yes"/>
      <point x="137" y="341" type="line"/>
      <point x="89" y="62" type="line"/>
      <point x="226" y="62" type="line" smooth="yes"/>
      <point x="339" y="62"/>
      <point x="419" y="118"/>
    </contour>
  </outline>
</glyph>
<glyph name="C" format="1">
  <advance width="704"/>
  <unicode hex="0043"/>
  <outline>
    <contour>
      <point x="698" y="625" type="curve"/>
      <point x="640" y="583" type="line"/>
      <point x="598" y="640"/>
      <point x="538" y="677"/>
      <point x="442" y="677" type="curve" smooth="yes"/>
      <point x="252" y="677"/>
      <point x="111" y="490"/>
      <point x="111" y="311" type="curve" smooth="yes"/>
      <point x="111" y="161"/>
      <point x="202" y="53"/>
      <point x="356" y="53" type="curve" smooth="yes"/>
      <point x="440" y="53"/>
      <point x="508" y="86"/>
      <point x="579" y="153" type="curve"/>
      <point x="622" y="109" type="line"/>
      <point x="554" y="41"/>
      <point x="458" y="-12"/>
      <point x="342" y="-12" type="curve" smooth="yes"/>
      <point x="167" y="-12"/>
      <point x="39" y="116"/>
      <point x="39" y="300" type="curve" smooth="yes"/>
      <point x="39" y="548"/>
      <point x="240" y="742"/>
      <point x="458" y="742" type="curve" smooth="yes"/>
      <point x="575" y="742"/>
      <point x="651" y="691"/>
    </contour>
  </outline>
</glyph>
<glyph name="D" format="1">
  <advance width="658"/>
  <unicode hex="0044"/>
  <outline>
    <contour>
      <point x="621" y="439" type="curve" smooth="yes"/>
      <point x="621" y="166"/>
      <point x="414" y="0"/>
      <point x="170" y="0" type="curve" smooth="yes"/>
      <point x="9" y="0" type="line"/>
      <point x="138" y="730" type="line"/>
      <point x="294" y="730" type="line" smooth="yes"/>
      <point x="486" y="730"/>
      <point x="621" y="627"/>
    </contour>
    <contour>
      <point x="549" y="422" type="curve" smooth="yes"/>
      <point x="549" y="585"/>
      <point x="454" y="669"/>
      <point x="285" y="669" type="curve" smooth="yes"/>
      <point x="196" y="669" type="line"/>
      <point x="89" y="61" type="line"/>
      <point x="173" y="61" type="line" smooth="yes"/>
      <point x="388" y="61"/>
      <point x="549" y="213"/>
    </contour>
  </outline>
</glyph>
<glyph name="E" format="1">
  <advance width="520"/>
  <unicode hex="0045"/>
  <outline>
    <contour>
      <point x="516" y="730" type="line"/>
      <point x="505" y="668" type="line"/>
      <point x="195" y="668" type="line"/>
      <point x="148" y="404" type="line"/>
      <point x="437" y="404" type="line"/>
      <point x="426" y="342" type="line"/>
      <point x="137" y="342" type="line"/>
      <point x="88" y="62" type="line"/>
      <point x="417" y="62" type="line"/>
      <point x="406" y="0" type="line"/>
      <point x="9" y="0" type="line"/>
      <point x="138" y="730" type="line"/>
    </contour>
  </outline>
</glyph>
<glyph name="F" format="1">
  <advance width="449"/>
  <unicode hex="0046"/>
  <outline>
    <contour>
      <point x="470" y="730" type="line"/>
      <point x="459" y="668" type="line"/>
      <point x="195" y="668" type="line"/>
      <point x="148" y="402" type="line"/>
      <point x="391" y="402" type="line"/>
      <point x="380" y="339" type="line"/>
      <point x="137" y="339" type="line"/>
      <point x="77" y="0" type="line"/>
      <point x="9" y="0" type="line"/>
      <point x="138" y="730" type="line"/>
    </contour>
  </outline>
</glyph>
<glyph name="G" format="1">
  <advance width="786"/>
  <unicode hex="0047"/>
  <outline>
    <contour>
      <point x="744" y="309" type="line"/>
      <point x="706" y="124"/>
      <point x="545" y="-12"/>
      <point x="353" y="-12" type="curve" smooth="yes"/>
      <point x="171" y="-12"/>
      <point x="39" y="112"/>
      <point x="39" y="298" type="curve" smooth="yes"/>
      <point x="39" y="560"/>
      <point x="244" y="742"/>
      <point x="475" y="742" type="curve" smooth="yes"/>
      <point x="593" y="742"/>
      <point x="676" y="690"/>
      <point x="727" y="628" type="curve"/>
      <point x="675" y="579" type="line"/>
      <point x="623" y="645"/>
      <point x="561" y="677"/>
      <point x="457" y="677" type="curve" smooth="yes"/>
      <point x="264" y="677"/>
      <point x="111" y="503"/>
      <point x="111" y="312" type="curve" smooth="yes"/>
      <point x="111" y="156"/>
      <point x="206" y="53"/>
      <point x="365" y="53" type="curve" smooth="yes"/>
      <point x="490" y="53"/>
      <point x="606" y="128"/>
      <point x="654" y="246" type="curve"/>
      <point x="411" y="246" type="line"/>
      <point x="422" y="309" type="line"/>
    </contour>
  </outline>
</glyph>
<glyph name="H" format="1">
  <advance width="658"/>
  <unicode hex="0048"/>
  <outline>
    <contour>
      <point x="649" y="730" type="line"/>
      <point x="520" y="0" type="line"/>
      <point x="452" y="0" type="line"/>
      <point x="512" y="342" type="line"/>
      <point x="137" y="342" type="line"/>
      <point x="77" y="0" type="line"/>
      <point x="9" y="0" type="line"/>
      <point x="138" y="730" type="line"/>
      <point x="206" y="730" type="line"/>
      <point x="149" y="405" type="line"/>
      <point x="523" y="405" type="line"/>
      <point x="581" y="730" type="line"/>
    </contour>
  </outline>
</glyph>
<glyph name="I" format="1">
  <advance width="216"/>
  <unicode hex="0049"/>
  <outline>
    <contour>
      <point x="206" y="730" type="line"/>
      <point x="77" y="0" type="line"/>
      <point x="9" y="0" type="line"/>
      <point x="138" y="730" type="line"/>
    </contour>
  </outline>
</glyph>
<glyph name="J" format="1">
  <advance width="344"/>
  <unicode hex="004A"/>
  <outline>
    <contour>
      <point x="337" y="730" type="line"/>
      <point x="244" y="203" type="line" smooth="yes"/>
      <point x="221" y="72"/>
      <point x="143" y="-9"/>
      <point x="23" y="-9" type="curve" smooth="yes"/>
      <point x="12" y="-9"/>
      <point x="-25" y="-9"/>
      <point x="-38" y="-5" type="curve"/>
      <point x="-28" y="56" type="line"/>
      <point x="-18" y="54"/>
      <point x="22" y="54"/>
      <point x="31" y="54" type="curve" smooth="yes"/>
      <point x="110" y="54"/>
      <point x="159" y="112"/>
      <point x="176" y="207" type="curve" smooth="yes"/>
      <point x="269" y="730" type="line"/>
    </contour>
  </outline>
</glyph>
<glyph name="K" format="1">
  <advance width="572"/>
  <unicode hex="004B"/>
  <outline>
    <contour>
      <point x="581" y="730" type="line"/>
      <point x="239" y="415" type="line"/>
      <point x="489" y="0" type="line"/>
      <point x="411" y="0" type="line"/>
      <point x="190" y="369" type="line"/>
      <point x="133" y="316" type="line"/>
      <point x="77" y="0" type="line"/>
      <point x="9" y="0" type="line"/>
      <point x="138" y="730" type="line"/>
      <point x="206" y="730" type="line"/>
      <point x="149" y="409" type="line"/>
      <point x="492" y="730" type="line"/>
    </contour>
  </outline>
</glyph>
<glyph name="L" format="1">
  <advance width="467"/>
  <unicode hex="004C"/>
  <outline>
    <contour>
      <point x="389" y="62" type="line"/>
      <point x="378" y="0" type="line"/>
      <point x="9" y="0" type="line"/>
      <point x="138" y="730" type="line"/>
      <point x="206" y="730" type="line"/>
      <point x="88" y="62" type="line"/>
    </contour>
  </outline>
</glyph>
<glyph name="M" format="1">
  <advance width="801"/>
  <unicode hex="004D"/>
  <outline>
    <contour>
      <point x="792" y="730" type="line"/>
      <point x="663" y="0" type="line"/>
      <point x="595" y="0" type="line"/>
      <point x="705" y="624" type="line"/>
      <point x="399" y="260" type="line"/>
      <point x="365" y="260" type="line"/>
      <point x="186" y="619" type="line"/>
      <point x="77" y="0" type="line"/>
      <point x="9" y="0" type="line"/>
      <point x="138" y="730" type="line"/>
      <point x="205" y="730" type="line"/>
      <point x="395" y="346" type="line"/>
      <point x="718" y="730" type="line"/>
    </contour>
  </outline>
</glyph>
<glyph name="N" format="1">
  <advance width="710"/>
  <unicode hex="004E"/>
  <outline>
    <contour>
      <point x="700" y="730" type="line"/>
      <point x="571" y="0" type="line"/>
      <point x="508" y="0" type="line"/>
      <point x="186" y="618" type="line"/>
      <point x="77" y="0" type="line"/>
      <point x="9" y="0" type="line"/>
      <point x="138" y="730" type="line"/>
      <point x="206" y="730" type="line"/>
      <point x="524" y="118" type="line"/>
      <point x="632" y="730" type="line"/>
    </contour>
  </outline>
</glyph>
<glyph name="O" format="1">
  <advance width="808"/>
  <unicode hex="004F"/>
  <outline>
    <contour>
      <point x="769" y="433" type="curve" smooth="yes"/>
      <point x="769" y="185"/>
      <point x="567" y="-12"/>
      <point x="350" y="-12" type="curve" smooth="yes"/>
      <point x="165" y="-12"/>
      <point x="39" y="119"/>
      <point x="39" y="297" type="curve" smooth="yes"/>
      <point x="39" y="553"/>
      <point x="243" y="742"/>
      <point x="462" y="742" type="curve" smooth="yes"/>
      <point x="652" y="742"/>
      <point x="769" y="604"/>
    </contour>
    <contour>
      <point x="698" y="421" type="curve" smooth="yes"/>
      <point x="698" y="571"/>
      <point x="607" y="677"/>
      <point x="448" y="677" type="curve" smooth="yes"/>
      <point x="256" y="677"/>
      <point x="111" y="498"/>
      <point x="111" y="312" type="curve" smooth="yes"/>
      <point x="111" y="156"/>
      <point x="206" y="53"/>
      <point x="361" y="53" type="curve" smooth="yes"/>
      <point x="543" y="53"/>
      <point x="698" y="226"/>
    </contour>
  </outline>
</glyph>
<glyph name="P" format="1">
  <advance width="527"/>
  <unicode hex="0050"/>
  <outline>
    <contour>
      <point x="522" y="552" type="curve" smooth="yes"/>
      <point x="522" y="410"/>
      <point x="407" y="304"/>
      <point x="247" y="304" type="curve" smooth="yes"/>
      <point x="131" y="304" type="line"/>
      <point x="77" y="0" type="line"/>
      <point x="9" y="0" type="line"/>
      <point x="138" y="730" type="line"/>
      <point x="305" y="730" type="line" smooth="yes"/>
      <point x="457" y="730"/>
      <point x="522" y="648"/>
    </contour>
    <contour>
      <point x="451" y="543" type="curve" smooth="yes"/>
      <point x="451" y="621"/>
      <point x="399" y="668"/>
      <point x="283" y="668" type="curve" smooth="yes"/>
      <point x="195" y="668" type="line"/>
      <point x="142" y="367" type="line"/>
      <point x="256" y="367" type="line" smooth="yes"/>
      <point x="376" y="367"/>
      <point x="451" y="442"/>
    </contour>
  </outline>
</glyph>
<glyph name="Q" format="1">
  <advance width="808"/>
  <unicode hex="0051"/>
  <outline>
    <contour>
      <point x="769" y="433" type="curve" smooth="yes"/>
      <point x="769" y="286"/>
      <point x="699" y="156"/>
      <point x="594" y="76" type="curve"/>
      <point x="618" y="58"/>
      <point x="645" y="46"/>
      <point x="671" y="42" type="curve"/>
      <point x="611" y="-13" type="line"/>
      <point x="583" y="-3"/>
      <point x="555" y="14"/>
      <point x="532" y="35" type="curve"/>
      <point x="476" y="4"/>
      <point x="414" y="-12"/>
      <point x="350" y="-12" type="curve" smooth="yes"/>
      <point x="165" y="-12"/>
      <point x="39" y="119"/>
      <point x="39" y="297" type="curve" smooth="yes"/>
      <point x="39" y="553"/>
      <point x="243" y="741"/>
      <point x="462" y="741" type="curve" smooth="yes"/>
      <point x="652" y="741"/>
      <point x="769" y="604"/>
    </contour>
    <contour>
      <point x="698" y="421" type="curve" smooth="yes"/>
      <point x="698" y="571"/>
      <point x="607" y="676"/>
      <point x="448" y="676" type="curve" smooth="yes"/>
      <point x="256" y="676"/>
      <point x="111" y="498"/>
      <point x="111" y="312" type="curve" smooth="yes"/>
      <point x="111" y="156"/>
      <point x="206" y="53"/>
      <point x="361" y="53" type="curve" smooth="yes"/>
      <point x="407" y="53"/>
      <point x="450" y="63"/>
      <point x="490" y="83" type="curve"/>
      <point x="474" y="104"/>
      <point x="461" y="128"/>
      <point x="453" y="148" type="curve"/>
      <point x="506" y="186" type="line"/>
      <point x="515" y="164"/>
      <point x="530" y="141"/>
      <point x="548" y="120" type="curve"/>
      <point x="637" y="187"/>
      <point x="698" y="300"/>
    </contour>
  </outline>
</glyph>
<glyph name="R" format="1">
  <advance width="556"/>
  <unicode hex="0052"/>
  <outline>
    <contour>
      <point x="529" y="553" type="curve" smooth="yes"/>
      <point x="529" y="406"/>
      <point x="413" y="314"/>
      <point x="268" y="314" type="curve" smooth="yes"/>
      <point x="240" y="314" type="line"/>
      <point x="458" y="0" type="line"/>
      <point x="376" y="0" type="line"/>
      <point x="138" y="344" type="line"/>
      <point x="77" y="0" type="line"/>
      <point x="9" y="0" type="line"/>
      <point x="138" y="730" type="line"/>
      <point x="313" y="730" type="line" smooth="yes"/>
      <point x="459" y="730"/>
      <point x="529" y="649"/>
    </contour>
    <contour>
      <point x="457" y="542" type="curve" smooth="yes"/>
      <point x="457" y="616"/>
      <point x="410" y="668"/>
      <point x="293" y="668" type="curve" smooth="yes"/>
      <point x="195" y="668" type="line"/>
      <point x="142" y="368" type="line"/>
      <point x="264" y="368" type="line" smooth="yes"/>
      <point x="386" y="368"/>
      <point x="457" y="444"/>
    </contour>
  </outline>
</glyph>
<glyph name="S" format="1">
  <advance width="493"/>
  <unicode hex="0053"/>
  <outline>
    <contour>
      <point x="478" y="668" type="curve"/>
      <point x="430" y="617" type="line"/>
      <point x="393" y="661"/>
      <point x="354" y="678"/>
      <point x="300" y="678" type="curve" smooth="yes"/>
      <point x="214" y="678"/>
      <point x="157" y="624"/>
      <point x="157" y="549" type="curve" smooth="yes"/>
      <point x="157" y="493"/>
      <point x="199" y="453"/>
      <point x="277" y="402" type="curve" smooth="yes"/>
      <point x="361" y="347"/>
      <point x="419" y="296"/>
      <point x="419" y="203" type="curve" smooth="yes"/>
      <point x="419" y="77"/>
      <point x="308" y="-12"/>
      <point x="179" y="-12" type="curve" smooth="yes"/>
      <point x="104" y="-12"/>
      <point x="40" y="17"/>
      <point x="-7" y="65" type="curve"/>
      <point x="40" y="116" type="line"/>
      <point x="77" y="78"/>
      <point x="126" y="52"/>
      <point x="184" y="52" type="curve" smooth="yes"/>
      <point x="277" y="52"/>
      <point x="346" y="107"/>
      <point x="346" y="189" type="curve" smooth="yes"/>
      <point x="346" y="262"/>
      <point x="296" y="305"/>
      <point x="212" y="360" type="curve" smooth="yes"/>
      <point x="143" y="405"/>
      <point x="84" y="456"/>
      <point x="84" y="542" type="curve" smooth="yes"/>
      <point x="84" y="655"/>
      <point x="179" y="742"/>
      <point x="307" y="742" type="curve" smooth="yes"/>
      <point x="382" y="742"/>
      <point x="434" y="718"/>
    </contour>
  </outline>
</glyph>
<glyph name="T" format="1">
  <advance width="468"/>
  <unicode hex="0054"/>
  <outline>
    <contour>
      <point x="502" y="730" type="line"/>
      <point x="491" y="668" type="line"/>
      <point x="319" y="668" type="line"/>
      <point x="201" y="0" type="line"/>
      <point x="133" y="0" type="line"/>
      <point x="251" y="668" type="line"/>
      <point x="81" y="668" type="line"/>
      <point x="92" y="730" type="line"/>
    </contour>
  </outline>
</glyph>
<glyph name="U" format="1">
  <advance width="675"/>
  <unicode hex="0055"/>
  <outline>
    <contour>
      <point x="668" y="730" type="line"/>
      <point x="589" y="279" type="line" smooth="yes"/>
      <point x="558" y="100"/>
      <point x="433" y="-12"/>
      <point x="282" y="-12" type="curve" smooth="yes"/>
      <point x="127" y="-12"/>
      <point x="24" y="104"/>
      <point x="56" y="287" type="curve" smooth="yes"/>
      <point x="134" y="730" type="line"/>
      <point x="202" y="730" type="line"/>
      <point x="124" y="287" type="line" smooth="yes"/>
      <point x="97" y="133"/>
      <point x="177" y="52"/>
      <point x="291" y="52" type="curve" smooth="yes"/>
      <point x="400" y="52"/>
      <point x="495" y="133"/>
      <point x="522" y="284" type="curve" smooth="yes"/>
      <point x="601" y="730" type="line"/>
    </contour>
  </outline>
</glyph>
<glyph name="V" format="1">
  <advance width="628"/>
  <unicode hex="0056"/>
  <outline>
    <contour>
      <point x="668" y="730" type="line"/>
      <point x="261" y="-16" type="line"/>
      <point x="233" y="-16" type="line"/>
      <point x="90" y="730" type="line"/>
      <point x="158" y="730" type="line"/>
      <point x="273" y="121" type="line"/>
      <point x="600" y="730" type="line"/>
    </contour>
  </outline>
</glyph>
<glyph name="W" format="1">
  <advance width="894"/>
  <unicode hex="0057"/>
  <outline>
    <contour>
      <point x="930" y="730" type="line"/>
      <point x="592" y="0" type="line"/>
      <point x="544" y="0" type="line"/>
      <point x="483" y="584" type="line"/>
      <point x="215" y="0" type="line"/>
      <point x="167" y="0" type="line"/>
      <point x="90" y="730" type="line"/>
      <point x="158" y="730" type="line"/>
      <point x="220" y="144" type="line"/>
      <point x="488" y="730" type="line"/>
      <point x="533" y="730" type="line"/>
      <point x="594" y="147" type="line"/>
      <point x="862" y="730" type="line"/>
    </contour>
  </outline>
</glyph>
<glyph name="X" format="1">
  <advance width="668"/>
  <unicode hex="0058"/>
  <outline>
    <contour>
      <point x="662" y="730" type="line"/>
      <point x="375" y="392" type="line"/>
      <point x="572" y="0" type="line"/>
      <point x="494" y="0" type="line"/>
      <point x="326" y="334" type="line"/>
      <point x="44" y="0" type="line"/>
      <point x="-37" y="0" type="line"/>
      <point x="297" y="395" type="line"/>
      <point x="129" y="730" type="line"/>
      <point x="208" y="730" type="line"/>
      <point x="347" y="453" type="line"/>
      <point x="580" y="730" type="line"/>
    </contour>
  </outline>
</glyph>
<glyph name="Y" format="1">
  <advance width="612"/>
  <unicode hex="0059"/>
  <outline>
    <contour>
      <point x="659" y="730" type="line"/>
      <point x="334" y="344" type="line"/>
      <point x="273" y="0" type="line"/>
      <point x="205" y="0" type="line"/>
      <point x="266" y="345" type="line"/>
      <point x="81" y="730" type="line"/>
      <point x="156" y="730" type="line"/>
      <point x="311" y="409" type="line"/>
      <point x="577" y="730" type="line"/>
    </contour>
  </outline>
</glyph>
<glyph name="Z" format="1">
  <advance width="618"/>
  <unicode hex="005A"/>
  <outline>
    <contour>
      <point x="630" y="730" type="line"/>
      <point x="97" y="62" type="line"/>
      <point x="511" y="62" type="line"/>
      <point x="501" y="0" type="line"/>
      <point x="-31" y="0" type="line"/>
      <point x="502" y="668" type="line"/>
      <point x="140" y="668" type="line"/>
      <point x="151" y="730" type="line"/>
    </contour>
  </outline>
</glyph>
<glyph name="bracketleft" format="1">
  <advance width="282"/>
  <unicode hex="005B"/>
  <outline>
    <contour>
      <point x="311" y="730" type="line"/>
      <point x="300" y="669" type="line"/>
      <point x="194" y="669" type="line"/>
      <point x="55" y="-118" type="line"/>
      <point x="161" y="-118" type="line"/>
      <point x="150" y="-179" type="line"/>
      <point x="-22" y="-179" type="line"/>
      <point x="138" y="730" type="line"/>
    </contour>
  </outline>
</glyph>
<glyph name="backslash" format="1">
  <advance width="366"/>
  <unicode hex="005C"/>
  <outline>
    <contour>
      <point x="277" y="0" type="line"/>
      <point x="214" y="0" type="line"/>
      <point x="87" y="730" type="line"/>
      <point x="151" y="730" type="line"/>
    </contour>
  </outline>
</glyph>
<glyph name="bracketright" format="1">
  <advance width="282"/>
  <unicode hex="005D"/>
  <outline>
    <contour>
      <point x="268" y="730" type="line"/>
      <point x="108" y="-179" type="line"/>
      <point x="-65" y="-179" type="line"/>
      <point x="-54" y="-118" type="line"/>
      <point x="51" y="-118" type="line"/>
      <point x="190" y="669" type="line"/>
      <point x="85" y="669" type="line"/>
      <point x="96" y="730" type="line"/>
    </contour>
  </outline>
</glyph>
<glyph name="asciicircum" format="1">
  <advance width="474"/>
  <unicode hex="005E"/>
  <outline>
    <contour>
      <point x="440" y="369" type="line"/>
      <point x="364" y="369" type="line"/>
      <point x="287" y="660" type="line"/>
      <point x="107" y="369" type="line"/>
      <point x="32" y="369" type="line"/>
      <point x="266" y="730" type="line"/>
      <point x="333" y="730" type="line"/>
    </contour>
  </outline>
</glyph>
<glyph name="underscore" format="1">
  <advance width="500"/>
  <unicode hex="005F"/>
  <outline>
    <contour>
      <point x="425" y="-115" type="line"/>
      <point x="-78" y="-115" type="line"/>
      <point x="-75" y="-63" type="line"/>
      <point x="429" y="-63" type="line"/>
    </contour>
  </outline>
</glyph>
<glyph name="grave" format="1">
  <advance width="468"/>
  <unicode hex="0060"/>
  <outline>
    <contour>
      <point x="309" y="488" type="line"/>
      <point x="244" y="488" type="line"/>
      <point x="166" y="629" type="line"/>
      <point x="233" y="629" type="line"/>
    </contour>
  </outline>
</glyph>
<glyph name="a" format="1">
  <advance width="433"/>
  <unicode hex="0061"/>
  <outline>
    <contour>
      <point x="365" y="279" type="curve" smooth="yes"/>
      <point x="316" y="0" type="line"/>
      <point x="252" y="0" type="line"/>
      <point x="260" y="46" type="line"/>
      <point x="222" y="14"/>
      <point x="170" y="-12"/>
      <point x="113" y="-12" type="curve" smooth="yes"/>
      <point x="39" y="-12"/>
      <point x="-11" y="31"/>
      <point x="-11" y="100" type="curve" smooth="yes"/>
      <point x="-11" y="206"/>
      <point x="89" y="266"/>
      <point x="221" y="266" type="curve" smooth="yes"/>
      <point x="299" y="266" type="line"/>
      <point x="302" y="278" type="line" smooth="yes"/>
      <point x="317" y="338"/>
      <point x="287" y="364"/>
      <point x="219" y="364" type="curve" smooth="yes"/>
      <point x="169" y="364"/>
      <point x="129" y="355"/>
      <point x="91" y="337" type="curve"/>
      <point x="76" y="387" type="line"/>
      <point x="118" y="409"/>
      <point x="174" y="420"/>
      <point x="225" y="420" type="curve" smooth="yes"/>
      <point x="338" y="420"/>
      <point x="381" y="368"/>
    </contour>
    <contour>
      <point x="289" y="213" type="line"/>
      <point x="215" y="213" type="line" smooth="yes"/>
      <point x="124" y="213"/>
      <point x="55" y="177"/>
      <point x="55" y="110" type="curve" smooth="yes"/>
      <point x="55" y="66"/>
      <point x="84" y="44"/>
      <point x="127" y="44" type="curve" smooth="yes"/>
      <point x="180" y="44"/>
      <point x="238" y="80"/>
      <point x="271" y="111" type="curve"/>
    </contour>
  </outline>
</glyph>
<glyph name="c" format="1">
  <advance width="415"/>
  <unicode hex="0063"/>
  <outline>
    <contour>
      <point x="378" y="353" type="curve"/>
      <point x="332" y="309" type="line"/>
      <point x="306" y="342"/>
      <point x="276" y="362"/>
      <point x="224" y="362" type="curve" smooth="yes"/>
      <point x="132" y="362"/>
      <point x="65" y="268"/>
      <point x="65" y="176" type="curve" smooth="yes"/>
      <point x="65" y="104"/>
      <point x="107" y="47"/>
      <point x="175" y="47" type="curve" smooth="yes"/>
      <point x="228" y="47"/>
      <point x="268" y="69"/>
      <point x="306" y="110" type="curve"/>
      <point x="345" y="71" type="line"/>
      <point x="302" y="23"/>
      <point x="245" y="-12"/>
      <point x="168" y="-12" type="curve" smooth="yes"/>
      <point x="75" y="-12"/>
      <point x="-1" y="59"/>
      <point x="-1" y="170" type="curve" smooth="yes"/>
      <point x="-1" y="291"/>
      <point x="95" y="420"/>
      <point x="229" y="420" type="curve" smooth="yes"/>
      <point x="310" y="420"/>
      <point x="351" y="387"/>
    </contour>
  </outline>
</glyph>
<glyph name="e" format="1">
  <advance width="441"/>
  <unicode hex="0065"/>
  <outline>
    <contour>
      <point x="385" y="258" type="curve" smooth="yes"/>
      <point x="385" y="239"/>
      <point x="384" y="215"/>
      <point x="380" y="201" type="curve"/>
      <point x="63" y="201" type="line"/>
      <point x="62" y="194"/>
      <point x="62" y="186"/>
      <point x="62" y="178" type="curve" smooth="yes"/>
      <point x="62" y="97"/>
      <point x="105" y="45"/>
      <point x="185" y="45" type="curve" smooth="yes"/>
      <point x="238" y="45"/>
      <point x="286" y="67"/>
      <point x="321" y="98" type="curve"/>
      <point x="356" y="57" type="line"/>
      <point x="318" y="21"/>
      <point x="259" y="-12"/>
      <point x="178" y="-12" type="curve" smooth="yes"/>
      <point x="72" y="-12"/>
      <point x="-1" y="54"/>
      <point x="-1" y="172" type="curve" smooth="yes"/>
      <point x="-1" y="303"/>
      <point x="92" y="420"/>
      <point x="225" y="420" type="curve" smooth="yes"/>
      <point x="326" y="420"/>
      <point x="385" y="344"/>
    </contour>
    <contour>
      <point x="322" y="250" type="line"/>
      <point x="323" y="308"/>
      <point x="297" y="364"/>
      <point x="218" y="364" type="curve" smooth="yes"/>
      <point x="150" y="364"/>
      <point x="95" y="318"/>
      <point x="74" y="250" type="curve"/>
    </contour>
  </outline>
</glyph>
<glyph name="g" format="1">
  <advance width="482"/>
  <unicode hex="0067"/>
  <outline>
    <contour>
      <point x="431" y="408" type="line"/>
      <point x="361" y="12" type="line" smooth="yes"/>
      <point x="337" y="-124"/>
      <point x="249" y="-190"/>
      <point x="138" y="-190" type="curve" smooth="yes"/>
      <point x="72" y="-190"/>
      <point x="17" y="-167"/>
      <point x="-24" y="-125" type="curve"/>
      <point x="16" y="-83" type="line"/>
      <point x="53" y="-120"/>
      <point x="95" y="-135"/>
      <point x="144" y="-135" type="curve" smooth="yes"/>
      <point x="220" y="-135"/>
      <point x="278" y="-91"/>
      <point x="295" y="3" type="curve" smooth="yes"/>
      <point x="308" y="73" type="line"/>
      <point x="278" y="30"/>
      <point x="223" y="-12"/>
      <point x="155" y="-12" type="curve" smooth="yes"/>
      <point x="66" y="-12"/>
      <point x="0" y="59"/>
      <point x="0" y="167" type="curve" smooth="yes"/>
      <point x="0" y="300"/>
      <point x="103" y="420"/>
      <point x="225" y="420" type="curve" smooth="yes"/>
      <point x="291" y="420"/>
      <point x="334" y="388"/>
      <point x="357" y="352" type="curve"/>
      <point x="367" y="408" type="line"/>
    </contour>
    <contour>
      <point x="344" y="280" type="line"/>
      <point x="324" y="328"/>
      <point x="283" y="361"/>
      <point x="221" y="361" type="curve" smooth="yes"/>
      <point x="134" y="361"/>
      <point x="66" y="275"/>
      <point x="66" y="171" type="curve" smooth="yes"/>
      <point x="66" y="86"/>
      <point x="109" y="46"/>
      <point x="171" y="46" type="curve" smooth="yes"/>
      <point x="247" y="46"/>
      <point x="318" y="120"/>
      <point x="332" y="207" type="curve" smooth="yes"/>
    </contour>
  </outline>
</glyph>
<glyph name="h" format="1">
  <advance width="455"/>
  <unicode hex="0068"/>
  <outline>
    <contour>
      <point x="383" y="257" type="curve" smooth="yes"/>
      <point x="338" y="0" type="line"/>
      <point x="274" y="0" type="line"/>
      <point x="319" y="251" type="line" smooth="yes"/>
      <point x="332" y="321"/>
      <point x="301" y="363"/>
      <point x="242" y="363" type="curve" smooth="yes"/>
      <point x="174" y="363"/>
      <point x="110" y="294"/>
      <point x="98" y="226" type="curve" smooth="yes"/>
      <point x="58" y="0" type="line"/>
      <point x="-5" y="0" type="line"/>
      <point x="123" y="730" type="line"/>
      <point x="187" y="730" type="line"/>
      <point x="119" y="344" type="line"/>
      <point x="150" y="384"/>
      <point x="200" y="420"/>
      <point x="262" y="420" type="curve" smooth="yes"/>
      <point x="353" y="420"/>
      <point x="401" y="357"/>
    </contour>
  </outline>
</glyph>
<glyph name="i" format="1">
  <advance width="181"/>
  <unicode hex="0069"/>
  <outline>
    <contour>
      <point x="165" y="608" type="line"/>
      <point x="148" y="512" type="line"/>
      <point x="84" y="512" type="line"/>
      <point x="101" y="608" type="line"/>
    </contour>
    <contour>
      <point x="130" y="408" type="line"/>
      <point x="58" y="0" type="line"/>
      <point x="-6" y="0" type="line"/>
      <point x="66" y="408" type="line"/>
    </contour>
  </outline>
</glyph>
<glyph name="j" format="1">
  <advance width="181"/>
  <unicode hex="006A"/>
  <outline>
    <contour>
      <point x="165" y="608" type="line"/>
      <point x="148" y="512" type="line"/>
      <point x="84" y="512" type="line"/>
      <point x="101" y="608" type="line"/>
    </contour>
    <contour>
      <point x="130" y="408" type="line"/>
      <point x="43" y="-86" type="line" smooth="yes"/>
      <point x="31" y="-155"/>
      <point x="-15" y="-184"/>
      <point x="-59" y="-184" type="curve" smooth="yes"/>
      <point x="-82" y="-184"/>
      <point x="-97" y="-181"/>
      <point x="-109" y="-177" type="curve"/>
      <point x="-102" y="-123" type="line"/>
      <point x="-92" y="-127"/>
      <point x="-80" y="-128"/>
      <point x="-67" y="-128" type="curve" smooth="yes"/>
      <point x="-41" y="-128"/>
      <point x="-25" y="-110"/>
      <point x="-17" y="-65" type="curve" smooth="yes"/>
      <point x="66" y="408" type="line"/>
    </contour>
  </outline>
</glyph>
<glyph name="k" format="1">
  <advance width="422"/>
  <unicode hex="006B"/>
  <outline>
    <contour>
      <point x="397" y="408" type="line"/>
      <point x="190" y="236" type="line"/>
      <point x="345" y="0" type="line"/>
      <point x="267" y="0" type="line"/>
      <point x="141" y="194" type="line"/>
      <point x="83" y="147" type="line"/>
      <point x="58" y="0" type="line"/>
      <point x="-6" y="0" type="line"/>
      <point x="123" y="730" type="line"/>
      <point x="187" y="730" type="line"/>
      <point x="98" y="228" type="line"/>
      <point x="308" y="408" type="line"/>
    </contour>
  </outline>
</glyph>
<glyph name="l" format="1">
  <advance width="181"/>
  <unicode hex="006C"/>
  <outline>
    <contour>
      <point x="187" y="730" type="line"/>
      <point x="58" y="0" type="line"/>
      <point x="-6" y="0" type="line"/>
      <point x="123" y="730" type="line"/>
    </contour>
  </outline>
</glyph>
<glyph name="m" format="1">
  <advance width="698"/>
  <unicode hex="006D"/>
  <outline>
    <contour>
      <point x="627" y="257" type="curve" smooth="yes"/>
      <point x="581" y="0" type="line"/>
      <point x="517" y="0" type="line"/>
      <point x="562" y="251" type="line" smooth="yes"/>
      <point x="575" y="321"/>
      <point x="556" y="363"/>
      <point x="497" y="363" type="curve" smooth="yes"/>
      <point x="432" y="363"/>
      <point x="373" y="298"/>
      <point x="360" y="226" type="curve" smooth="yes"/>
      <point x="320" y="0" type="line"/>
      <point x="256" y="0" type="line"/>
      <point x="301" y="251" type="line" smooth="yes"/>
      <point x="314" y="321"/>
      <point x="294" y="363"/>
      <point x="235" y="363" type="curve" smooth="yes"/>
      <point x="168" y="363"/>
      <point x="110" y="294"/>
      <point x="98" y="226" type="curve" smooth="yes"/>
      <point x="58" y="0" type="line"/>
      <point x="-5" y="0" type="line"/>
      <point x="67" y="408" type="line"/>
      <point x="130" y="408" type="line"/>
      <point x="119" y="344" type="line"/>
      <point x="150" y="385"/>
      <point x="194" y="420"/>
      <point x="255" y="420" type="curve" smooth="yes"/>
      <point x="317" y="420"/>
      <point x="352" y="389"/>
      <point x="364" y="335" type="curve"/>
      <point x="398" y="378"/>
      <point x="450" y="420"/>
      <point x="516" y="420" type="curve" smooth="yes"/>
      <point x="605" y="420"/>
      <point x="645" y="358"/>
    </contour>
  </outline>
</glyph>
<glyph name="n" format="1">
  <advance width="455"/>
  <unicode hex="006E"/>
  <outline>
    <contour>
      <point x="383" y="257" type="curve" smooth="yes"/>
      <point x="338" y="0" type="line"/>
      <point x="274" y="0" type="line"/>
      <point x="319" y="251" type="line" smooth="yes"/>
      <point x="332" y="321"/>
      <point x="301" y="363"/>
      <point x="242" y="363" type="curve" smooth="yes"/>
      <point x="174" y="363"/>
      <point x="110" y="294"/>
      <point x="98" y="226" type="curve" smooth="yes"/>
      <point x="58" y="0" type="line"/>
      <point x="-5" y="0" type="line"/>
      <point x="67" y="408" type="line"/>
      <point x="130" y="408" type="line"/>
      <point x="119" y="344" type="line"/>
      <point x="150" y="384"/>
      <point x="200" y="420"/>
      <point x="262" y="420" type="curve" smooth="yes"/>
      <point x="353" y="420"/>
      <point x="401" y="357"/>
    </contour>
  </outline>
</glyph>
<glyph name="o" format="1">
  <advance width="471"/>
  <unicode hex="006F"/>
  <outline>
    <contour>
      <point x="417" y="244" type="curve" smooth="yes"/>
      <point x="417" y="97"/>
      <point x="311" y="-12"/>
      <point x="179" y="-12" type="curve" smooth="yes"/>
      <point x="75" y="-12"/>
      <point x="0" y="64"/>
      <point x="0" y="166" type="curve" smooth="yes"/>
      <point x="0" y="299"/>
      <point x="102" y="420"/>
      <point x="239" y="420" type="curve" smooth="yes"/>
      <point x="342" y="420"/>
      <point x="417" y="344"/>
    </contour>
    <contour>
      <point x="351" y="234" type="curve" smooth="yes"/>
      <point x="351" y="309"/>
      <point x="307" y="361"/>
      <point x="231" y="361" type="curve" smooth="yes"/>
      <point x="140" y="361"/>
      <point x="66" y="278"/>
      <point x="66" y="175" type="curve" smooth="yes"/>
      <point x="66" y="102"/>
      <point x="109" y="47"/>
      <point x="187" y="47" type="curve" smooth="yes"/>
      <point x="285" y="47"/>
      <point x="351" y="135"/>
    </contour>
  </outline>
</glyph>
<glyph name="p" format="1">
  <advance width="482"/>
  <unicode hex="0070"/>
  <outline>
    <contour>
      <point x="425" y="241" type="curve" smooth="yes"/>
      <point x="425" y="108"/>
      <point x="322" y="-12"/>
      <point x="200" y="-12" type="curve" smooth="yes"/>
      <point x="134" y="-12"/>
      <point x="91" y="20"/>
      <point x="68" y="55" type="curve"/>
      <point x="26" y="-179" type="line"/>
      <point x="-37" y="-179" type="line"/>
      <point x="67" y="408" type="line"/>
      <point x="130" y="408" type="line"/>
      <point x="118" y="335" type="line"/>
      <point x="147" y="378"/>
      <point x="202" y="420"/>
      <point x="270" y="420" type="curve" smooth="yes"/>
      <point x="359" y="420"/>
      <point x="425" y="349"/>
    </contour>
    <contour>
      <point x="359" y="237" type="curve" smooth="yes"/>
      <point x="359" y="322"/>
      <point x="316" y="362"/>
      <point x="254" y="362" type="curve" smooth="yes"/>
      <point x="178" y="362"/>
      <point x="110" y="288"/>
      <point x="94" y="200" type="curve" smooth="yes"/>
      <point x="81" y="127" type="line"/>
      <point x="102" y="80"/>
      <point x="143" y="47"/>
      <point x="204" y="47" type="curve" smooth="yes"/>
      <point x="292" y="47"/>
      <point x="359" y="133"/>
    </contour>
  </outline>
</glyph>
<glyph name="q" format="1">
  <advance width="482"/>
  <unicode hex="0071"/>
  <outline>
    <contour>
      <point x="431" y="408" type="line"/>
      <point x="327" y="-179" type="line"/>
      <point x="263" y="-179" type="line"/>
      <point x="308" y="73" type="line"/>
      <point x="278" y="30"/>
      <point x="223" y="-12"/>
      <point x="155" y="-12" type="curve" smooth="yes"/>
      <point x="66" y="-12"/>
      <point x="0" y="59"/>
      <point x="0" y="167" type="curve" smooth="yes"/>
      <point x="0" y="300"/>
      <point x="103" y="420"/>
      <point x="225" y="420" type="curve" smooth="yes"/>
      <point x="291" y="420"/>
      <point x="334" y="388"/>
      <point x="357" y="352" type="curve"/>
      <point x="367" y="408" type="line"/>
    </contour>
    <contour>
      <point x="344" y="280" type="line"/>
      <point x="324" y="328"/>
      <point x="283" y="361"/>
      <point x="221" y="361" type="curve" smooth="yes"/>
      <point x="134" y="361"/>
      <point x="66" y="275"/>
      <point x="66" y="171" type="curve" smooth="yes"/>
      <point x="66" y="86"/>
      <point x="109" y="46"/>
      <point x="171" y="46" type="curve" smooth="yes"/>
      <point x="247" y="46"/>
      <point x="318" y="120"/>
      <point x="332" y="207" type="curve" smooth="yes"/>
    </contour>
  </outline>
</glyph>
<glyph name="r" format="1">
  <advance width="309"/>
  <unicode hex="0072"/>
  <outline>
    <contour>
      <point x="305" y="399" type="curve"/>
      <point x="270" y="345" type="line"/>
      <point x="258" y="355"/>
      <point x="245" y="361"/>
      <point x="223" y="361" type="curve" smooth="yes"/>
      <point x="171" y="361"/>
      <point x="110" y="293"/>
      <point x="98" y="225" type="curve" smooth="yes"/>
      <point x="58" y="0" type="line"/>
      <point x="-5" y="0" type="line"/>
      <point x="67" y="408" type="line"/>
      <point x="130" y="408" type="line"/>
      <point x="120" y="347" type="line"/>
      <point x="147" y="387"/>
      <point x="193" y="420"/>
      <point x="240" y="420" type="curve" smooth="yes"/>
      <point x="269" y="420"/>
      <point x="288" y="414"/>
    </contour>
  </outline>
</glyph>
<glyph name="s" format="1">
  <advance width="350"/>
  <unicode hex="0073"/>
  <outline>
    <contour>
      <point x="304" y="375" type="curve"/>
      <point x="267" y="328" type="line"/>
      <point x="240" y="351"/>
      <point x="204" y="365"/>
      <point x="170" y="365" type="curve" smooth="yes"/>
      <point x="128" y="365"/>
      <point x="96" y="343"/>
      <point x="96" y="307" type="curve" smooth="yes"/>
      <point x="96" y="279"/>
      <point x="124" y="259"/>
      <point x="173" y="236" type="curve" smooth="yes"/>
      <point x="233" y="207"/>
      <point x="273" y="176"/>
      <point x="273" y="118" type="curve" smooth="yes"/>
      <point x="273" y="36"/>
      <point x="194" y="-9"/>
      <point x="122" y="-9" type="curve" smooth="yes"/>
      <point x="59" y="-9"/>
      <point x="14" y="13"/>
      <point x="-19" y="40" type="curve"/>
      <point x="19" y="87" type="line"/>
      <point x="51" y="62"/>
      <point x="90" y="45"/>
      <point x="124" y="45" type="curve" smooth="yes"/>
      <point x="167" y="45"/>
      <point x="209" y="66"/>
      <point x="209" y="109" type="curve" smooth="yes"/>
      <point x="209" y="145"/>
      <point x="179" y="164"/>
      <point x="118" y="194" type="curve" smooth="yes"/>
      <point x="72" y="216"/>
      <point x="32" y="246"/>
      <point x="32" y="300" type="curve" smooth="yes"/>
      <point x="32" y="374"/>
      <point x="104" y="418"/>
      <point x="176" y="418" type="curve" smooth="yes"/>
      <point x="227" y="418"/>
      <point x="271" y="404"/>
    </contour>
  </outline>
</glyph>
<glyph name="t" format="1">
  <advance width="245"/>
  <unicode hex="0074"/>
  <outline>
    <contour>
      <point x="217" y="408" type="line"/>
      <point x="207" y="350" type="line"/>
      <point x="129" y="350" type="line"/>
      <point x="89" y="123" type="line" smooth="yes"/>
      <point x="82" y="84"/>
      <point x="95" y="57"/>
      <point x="135" y="57" type="curve" smooth="yes"/>
      <point x="138" y="57"/>
      <point x="161" y="58"/>
      <point x="161" y="58" type="curve"/>
      <point x="133" y="0" type="line"/>
      <point x="123" y="0" type="line" smooth="yes"/>
      <point x="50" y="0"/>
      <point x="10" y="42"/>
      <point x="25" y="124" type="curve" smooth="yes"/>
      <point x="65" y="350" type="line"/>
      <point x="9" y="350" type="line"/>
      <point x="20" y="408" type="line"/>
      <point x="75" y="408" type="line"/>
      <point x="103" y="564" type="line"/>
      <point x="173" y="599" type="line"/>
      <point x="139" y="408" type="line"/>
    </contour>
  </outline>
</glyph>
<glyph name="u" format="1">
  <advance width="455"/>
  <unicode hex="0075"/>
  <outline>
    <contour>
      <point x="401" y="408" type="line"/>
      <point x="329" y="0" type="line"/>
      <point x="265" y="0" type="line"/>
      <point x="276" y="64" type="line"/>
      <point x="246" y="24"/>
      <point x="195" y="-12"/>
      <point x="134" y="-12" type="curve" smooth="yes"/>
      <point x="43" y="-12"/>
      <point x="-6" y="51"/>
      <point x="12" y="150" type="curve" smooth="yes"/>
      <point x="58" y="408" type="line"/>
      <point x="122" y="408" type="line"/>
      <point x="77" y="156" type="line" smooth="yes"/>
      <point x="65" y="87"/>
      <point x="95" y="45"/>
      <point x="154" y="45" type="curve" smooth="yes"/>
      <point x="221" y="45"/>
      <point x="286" y="114"/>
      <point x="298" y="182" type="curve" smooth="yes"/>
      <point x="338" y="408" type="line"/>
    </contour>
  </outline>
</glyph>
<glyph name="v" format="1">
  <advance width="397"/>
  <unicode hex="0076"/>
  <outline>
    <contour>
      <point x="389" y="408" type="line"/>
      <point x="127" y="-18" type="line"/>
      <point x="14" y="408" type="line"/>
      <point x="81" y="408" type="line"/>
      <point x="152" y="120" type="line"/>
      <point x="320" y="408" type="line"/>
    </contour>
  </outline>
</glyph>
<glyph name="w" format="1">
  <advance width="606"/>
  <unicode hex="0077"/>
  <outline>
    <contour>
      <point x="598" y="408" type="line"/>
      <point x="352" y="-18" type="line"/>
      <point x="284" y="275" type="line"/>
      <point x="112" y="-18" type="line"/>
      <point x="14" y="408" type="line"/>
      <point x="82" y="408" type="line"/>
      <point x="142" y="133" type="line"/>
      <point x="308" y="416" type="line"/>
      <point x="378" y="136" type="line"/>
      <point x="528" y="408" type="line"/>
    </contour>
  </outline>
</glyph>
<glyph name="x" format="1">
  <advance width="411"/>
  <unicode hex="0078"/>
  <outline>
    <contour>
      <point x="378" y="408" type="line"/>
      <point x="216" y="219" type="line"/>
      <point x="334" y="0" type="line"/>
      <point x="261" y="0" type="line"/>
      <point x="173" y="172" type="line"/>
      <point x="26" y="0" type="line"/>
      <point x="-48" y="0" type="line"/>
      <point x="144" y="223" type="line"/>
      <point x="46" y="408" type="line"/>
      <point x="117" y="408" type="line"/>
      <point x="188" y="270" type="line"/>
      <point x="304" y="408" type="line"/>
    </contour>
  </outline>
</glyph>
<glyph name="y" format="1">
  <advance width="394"/>
  <unicode hex="0079"/>
  <outline>
    <contour>
      <point x="387" y="408" type="line"/>
      <point x="124" y="-79" type="line" smooth="yes"/>
      <point x="96" y="-130"/>
      <point x="53" y="-185"/>
      <point x="-13" y="-185" type="curve" smooth="yes"/>
      <point x="-37" y="-185"/>
      <point x="-55" y="-182"/>
      <point x="-73" y="-174" type="curve"/>
      <point x="-63" y="-115" type="line"/>
      <point x="-50" y="-123"/>
      <point x="-35" y="-127"/>
      <point x="-17" y="-127" type="curve" smooth="yes"/>
      <point x="24" y="-127"/>
      <point x="48" y="-98"/>
      <point x="73" y="-53" type="curve" smooth="yes"/>
      <point x="101" y="-3" type="line"/>
      <point x="17" y="408" type="line"/>
      <point x="82" y="408" type="line"/>
      <point x="149" y="73" type="line"/>
      <point x="317" y="408" type="line"/>
    </contour>
  </outline>
</glyph>
<glyph name="z" format="1">
  <advance width="411"/>
  <unicode hex="007A"/>
  <outline>
    <contour>
      <point x="391" y="408" type="line"/>
      <point x="76" y="56" type="line"/>
      <point x="313" y="56" type="line"/>
      <point x="303" y="0" type="line"/>
      <point x="-47" y="0" type="line"/>
      <point x="267" y="352" type="line"/>
      <point x="52" y="352" type="line"/>
      <point x="61" y="408" type="line"/>
    </contour>
  </outline>
</glyph>
<glyph name="braceleft" format="1">
  <advance width="281"/>
  <unicode hex="007B"/>
  <outline>
    <contour>
      <point x="325" y="749" type="curve"/>
      <point x="315" y="695" type="line"/>
      <point x="243" y="658"/>
      <point x="221" y="603"/>
      <point x="202" y="496" type="curve" smooth="yes"/>
      <point x="184" y="394"/>
      <point x="168" y="308"/>
      <point x="96" y="285" type="curve"/>
      <point x="132" y="272"/>
      <point x="143" y="240"/>
      <point x="143" y="194" type="curve" smooth="yes"/>
      <point x="143" y="149"/>
      <point x="130" y="80"/>
      <point x="124" y="32" type="curve" smooth="yes"/>
      <point x="114" y="-55"/>
      <point x="121" y="-98"/>
      <point x="170" y="-131" type="curve"/>
      <point x="161" y="-179" type="line"/>
      <point x="61" y="-141"/>
      <point x="48" y="-71"/>
      <point x="61" y="41" type="curve" smooth="yes"/>
      <point x="67" y="91"/>
      <point x="78" y="145"/>
      <point x="79" y="185" type="curve" smooth="yes"/>
      <point x="80" y="230"/>
      <point x="66" y="257"/>
      <point x="18" y="257" type="curve"/>
      <point x="28" y="314" type="line"/>
      <point x="105" y="314"/>
      <point x="119" y="385"/>
      <point x="136" y="482" type="curve" smooth="yes"/>
      <point x="166" y="652"/>
      <point x="204" y="717"/>
    </contour>
  </outline>
</glyph>
<glyph name="bar" format="1">
  <advance width="212"/>
  <unicode hex="007C"/>
  <outline>
    <contour>
      <point x="202" y="730" type="line"/>
      <point x="42" y="-179" type="line"/>
      <point x="-21" y="-179" type="line"/>
      <point x="139" y="730" type="line"/>
    </contour>
  </outline>
</glyph>
<glyph name="braceright" format="1">
  <advance width="281"/>
  <unicode hex="007D"/>
  <outline>
    <contour>
      <point x="239" y="313" type="curve"/>
      <point x="229" y="257" type="line"/>
      <point x="152" y="257"/>
      <point x="138" y="185"/>
      <point x="121" y="88" type="curve" smooth="yes"/>
      <point x="91" y="-82"/>
      <point x="53" y="-147"/>
      <point x="-67" y="-179" type="curve"/>
      <point x="-58" y="-125" type="line"/>
      <point x="14" y="-88"/>
      <point x="36" y="-32"/>
      <point x="55" y="75" type="curve" smooth="yes"/>
      <point x="73" y="176"/>
      <point x="89" y="263"/>
      <point x="161" y="285" type="curve"/>
      <point x="124" y="298"/>
      <point x="114" y="333"/>
      <point x="114" y="378" type="curve" smooth="yes"/>
      <point x="114" y="446"/>
      <point x="141" y="541"/>
      <point x="140" y="601" type="curve" smooth="yes"/>
      <point x="140" y="651"/>
      <point x="125" y="677"/>
      <point x="88" y="702" type="curve"/>
      <point x="96" y="749" type="line"/>
      <point x="175" y="718"/>
      <point x="203" y="671"/>
      <point x="204" y="595" type="curve" smooth="yes"/>
      <point x="204" y="524"/>
      <point x="178" y="441"/>
      <point x="178" y="382" type="curve" smooth="yes"/>
      <point x="178" y="340"/>
      <point x="193" y="313"/>
    </contour>
  </outline>
</glyph>
<glyph name="asciitilde" format="1">
  <advance width="480"/>
  <unicode hex="007E"/>
  <outline>
    <contour>
      <point x="439" y="442" type="line"/>
      <point x="419" y="345"/>
      <point x="383" y="290"/>
      <point x="313" y="290" type="curve" smooth="yes"/>
      <point x="278" y="290"/>
      <point x="246" y="318"/>
      <point x="222" y="337" type="curve"/>
      <point x="201" y="357"/>
      <point x="178" y="379"/>
      <point x="153" y="379" type="curve" smooth="yes"/>
      <point x="125" y="379"/>
      <point x="112" y="340"/>
      <point x="103" y="294" type="curve"/>
      <point x="35" y="294" type="line"/>
      <point x="53" y="380"/>
      <point x="80" y="444"/>
      <point x="162" y="444" type="curve" smooth="yes"/>
      <point x="195" y="444"/>
      <point x="228" y="415"/>
      <point x="253" y="395" type="curve" smooth="yes"/>
      <point x="275" y="377"/>
      <point x="297" y="355"/>
      <point x="321" y="355" type="curve" smooth="yes"/>
      <point x="343" y="355"/>
      <point x="362" y="388"/>
      <point x="370" y="442" type="curve"/>
    </contour>
  </outline>
</glyph>
<glyph name="exclamdown" format="1">
  <advance width="200"/>
  <unicode hex="00A1"/>
  <outline>
    <contour>
      <point x="200" y="730" type="line"/>
      <point x="183" y="634" type="line"/>
      <point x="113" y="634" type="line"/>
      <point x="130" y="730" type="line"/>
    </contour>
    <contour>
      <point x="161" y="589" type="line"/>
      <point x="137" y="369" type="line"/>
      <point x="71" y="0" type="line"/>
      <point x="1" y="0" type="line"/>
      <point x="66" y="369" type="line"/>
      <point x="119" y="589" type="line"/>
    </contour>
  </outline>
</glyph>
<glyph name="cent" format="1">
  <advance width="419"/>
  <unicode hex="00A2"/>
  <outline>
    <contour>
      <point x="379" y="359" type="curve"/>
      <point x="333" y="315" type="line"/>
      <point x="311" y="344"/>
      <point x="286" y="362"/>
      <point x="245" y="366" type="curve"/>
      <point x="190" y="52" type="line"/>
      <point x="235" y="57"/>
      <point x="268" y="78"/>
      <point x="302" y="115" type="curve"/>
      <point x="341" y="77" type="line"/>
      <point x="300" y="32"/>
      <point x="247" y="-2"/>
      <point x="179" y="-6" type="curve"/>
      <point x="168" y="-73" type="line"/>
      <point x="123" y="-73" type="line"/>
      <point x="135" y="-4" type="line"/>
      <point x="56" y="10"/>
      <point x="0" y="77"/>
      <point x="0" y="175" type="curve" smooth="yes"/>
      <point x="0" y="289"/>
      <point x="88" y="412"/>
      <point x="210" y="424" type="curve"/>
      <point x="224" y="501" type="line"/>
      <point x="269" y="501" type="line"/>
      <point x="255" y="424" type="line"/>
      <point x="320" y="418"/>
      <point x="355" y="388"/>
    </contour>
    <contour>
      <point x="200" y="364" type="line"/>
      <point x="121" y="349"/>
      <point x="65" y="264"/>
      <point x="65" y="182" type="curve" smooth="yes"/>
      <point x="65" y="119"/>
      <point x="96" y="69"/>
      <point x="146" y="56" type="curve"/>
    </contour>
  </outline>
</glyph>
<glyph name="sterling" format="1">
  <advance width="558"/>
  <unicode hex="00A3"/>
  <outline>
    <contour>
      <point x="541" y="550" type="curve"/>
      <point x="468" y="550" type="line"/>
      <point x="470" y="558"/>
      <point x="471" y="566"/>
      <point x="471" y="575" type="curve" smooth="yes"/>
      <point x="471" y="633"/>
      <point x="435" y="678"/>
      <point x="355" y="678" type="curve" smooth="yes"/>
      <point x="254" y="678"/>
      <point x="195" y="611"/>
      <point x="195" y="518" type="curve" smooth="yes"/>
      <point x="195" y="466"/>
      <point x="222" y="421"/>
      <point x="249" y="371" type="curve"/>
      <point x="436" y="371" type="line"/>
      <point x="430" y="334" type="line"/>
      <point x="267" y="334" type="line"/>
      <point x="278" y="314"/>
      <point x="286" y="293"/>
      <point x="291" y="272" type="curve"/>
      <point x="419" y="272" type="line"/>
      <point x="412" y="235" type="line"/>
      <point x="296" y="235" type="line"/>
      <point x="297" y="231"/>
      <point x="297" y="227"/>
      <point x="297" y="222" type="curve" smooth="yes"/>
      <point x="297" y="176"/>
      <point x="284" y="134"/>
      <point x="264" y="98" type="curve"/>
      <point x="293" y="74"/>
      <point x="315" y="56"/>
      <point x="344" y="56" type="curve" smooth="yes"/>
      <point x="396" y="56"/>
      <point x="415" y="111"/>
      <point x="422" y="162" type="curve"/>
      <point x="488" y="162" type="line"/>
      <point x="479" y="79"/>
      <point x="444" y="-12"/>
      <point x="342" y="-12" type="curve" smooth="yes"/>
      <point x="293" y="-12"/>
      <point x="258" y="16"/>
      <point x="223" y="49" type="curve"/>
      <point x="185" y="10"/>
      <point x="134" y="-12"/>
      <point x="83" y="-12" type="curve" smooth="yes"/>
      <point x="32" y="-12"/>
      <point x="-11" y="11"/>
      <point x="-11" y="66" type="curve" smooth="yes"/>
      <point x="-11" y="129"/>
      <point x="49" y="164"/>
      <point x="115" y="164" type="curve" smooth="yes"/>
      <point x="154" y="164"/>
      <point x="186" y="150"/>
      <point x="213" y="132" type="curve"/>
      <point x="222" y="155"/>
      <point x="228" y="180"/>
      <point x="228" y="204" type="curve" smooth="yes"/>
      <point x="228" y="215"/>
      <point x="227" y="226"/>
      <point x="225" y="235" type="curve"/>
      <point x="56" y="235" type="line"/>
      <point x="63" y="272" type="line"/>
      <point x="213" y="272" type="line"/>
      <point x="206" y="293"/>
      <point x="196" y="313"/>
      <point x="184" y="334" type="curve"/>
      <point x="74" y="334" type="line"/>
      <point x="80" y="371" type="line"/>
      <point x="164" y="371" type="line"/>
      <point x="138" y="418"/>
      <point x="119" y="462"/>
      <point x="119" y="514" type="curve" smooth="yes"/>
      <point x="119" y="637"/>
      <point x="214" y="742"/>
      <point x="364" y="742" type="curve" smooth="yes"/>
      <point x="478" y="742"/>
      <point x="546" y="684"/>
      <point x="546" y="595" type="curve" smooth="yes"/>
      <point x="546" y="580"/>
      <point x="544" y="564"/>
    </contour>
    <contour>
      <point x="183" y="84" type="curve"/>
      <point x="160" y="102"/>
      <point x="136" y="116"/>
      <point x="109" y="116" type="curve" smooth="yes"/>
      <point x="70" y="116"/>
      <point x="46" y="98"/>
      <point x="46" y="71" type="curve" smooth="yes"/>
      <point x="46" y="48"/>
      <point x="62" y="34"/>
      <point x="92" y="34" type="curve" smooth="yes"/>
      <point x="125" y="34"/>
      <point x="158" y="54"/>
    </contour>
  </outline>
</glyph>
<glyph name="yen" format="1">
  <advance width="601"/>
  <unicode hex="00A5"/>
  <outline>
    <contour>
      <point x="265" y="0" type="line"/>
      <point x="195" y="0" type="line"/>
      <point x="217" y="119" type="line"/>
      <point x="65" y="119" type="line"/>
      <point x="72" y="156" type="line"/>
      <point x="223" y="156" type="line"/>
      <point x="236" y="230" type="line"/>
      <point x="84" y="230" type="line"/>
      <point x="91" y="267" type="line"/>
      <point x="242" y="267" type="line"/>
      <point x="256" y="345" type="line"/>
      <point x="72" y="730" type="line"/>
      <point x="150" y="730" type="line"/>
      <point x="292" y="433" type="line"/>
      <point x="301" y="413" type="line"/>
      <point x="317" y="432" type="line"/>
      <point x="565" y="730" type="line"/>
      <point x="647" y="730" type="line"/>
      <point x="326" y="346" type="line"/>
      <point x="312" y="267" type="line"/>
      <point x="460" y="267" type="line"/>
      <point x="453" y="230" type="line"/>
      <point x="306" y="230" type="line"/>
      <point x="293" y="156" type="line"/>
      <point x="440" y="156" type="line"/>
      <point x="433" y="119" type="line"/>
      <point x="286" y="119" type="line"/>
    </contour>
  </outline>
</glyph>
<glyph name="brokenbar" format="1">
  <advance width="221"/>
  <unicode hex="00A6"/>
  <outline>
    <contour>
      <point x="77" y="351" type="line"/>
      <point x="144" y="730" type="line"/>
      <point x="209" y="730" type="line"/>
      <point x="142" y="351" type="line"/>
    </contour>
    <contour>
      <point x="115" y="200" type="line"/>
      <point x="48" y="-179" type="line"/>
      <point x="-17" y="-179" type="line"/>
      <point x="50" y="200" type="line"/>
    </contour>
  </outline>
</glyph>
<glyph name="section" format="1">
  <advance width="638"/>
  <unicode hex="00A7"/>
  <outline>
    <contour>
      <point x="617" y="668" type="curve"/>
      <point x="572" y="616" type="line"/>
      <point x="532" y="649"/>
      <point x="466" y="679"/>
      <point x="384" y="679" type="curve" smooth="yes"/>
      <point x="290" y="679"/>
      <point x="228" y="638"/>
      <point x="228" y="583" type="curve" smooth="yes"/>
      <point x="228" y="544"/>
      <point x="257" y="522"/>
      <point x="317" y="497" type="curve" smooth="yes"/>
      <point x="330" y="492"/>
      <point x="460" y="441"/>
      <point x="476" y="434" type="curve" smooth="yes"/>
      <point x="554" y="402"/>
      <point x="594" y="356"/>
      <point x="594" y="284" type="curve" smooth="yes"/>
      <point x="594" y="190"/>
      <point x="521" y="113"/>
      <point x="442" y="69" type="curve"/>
      <point x="462" y="48"/>
      <point x="473" y="22"/>
      <point x="473" y="-10" type="curve" smooth="yes"/>
      <point x="473" y="-128"/>
      <point x="357" y="-183"/>
      <point x="229" y="-183" type="curve" smooth="yes"/>
      <point x="127" y="-183"/>
      <point x="55" y="-149"/>
      <point x="8" y="-109" type="curve"/>
      <point x="54" y="-57" type="line"/>
      <point x="93" y="-90"/>
      <point x="159" y="-120"/>
      <point x="242" y="-120" type="curve" smooth="yes"/>
      <point x="335" y="-120"/>
      <point x="397" y="-79"/>
      <point x="397" y="-23" type="curve" smooth="yes"/>
      <point x="397" y="14"/>
      <point x="371" y="38"/>
      <point x="314" y="61" type="curve" smooth="yes"/>
      <point x="294" y="69"/>
      <point x="164" y="119"/>
      <point x="146" y="126" type="curve" smooth="yes"/>
      <point x="69" y="159"/>
      <point x="32" y="204"/>
      <point x="32" y="275" type="curve" smooth="yes"/>
      <point x="32" y="369"/>
      <point x="103" y="446"/>
      <point x="184" y="490" type="curve"/>
      <point x="164" y="511"/>
      <point x="152" y="537"/>
      <point x="152" y="569" type="curve" smooth="yes"/>
      <point x="152" y="687"/>
      <point x="268" y="742"/>
      <point x="397" y="742" type="curve" smooth="yes"/>
      <point x="498" y="742"/>
      <point x="570" y="708"/>
    </contour>
    <contour>
      <point x="518" y="268" type="curve" smooth="yes"/>
      <point x="518" y="317"/>
      <point x="486" y="350"/>
      <point x="423" y="376" type="curve" smooth="yes"/>
      <point x="408" y="382"/>
      <point x="324" y="414"/>
      <point x="297" y="425" type="curve" smooth="yes"/>
      <point x="270" y="436"/>
      <point x="245" y="447"/>
      <point x="235" y="452" type="curve"/>
      <point x="166" y="416"/>
      <point x="107" y="362"/>
      <point x="107" y="290" type="curve" smooth="yes"/>
      <point x="107" y="243"/>
      <point x="138" y="211"/>
      <point x="199" y="185" type="curve" smooth="yes"/>
      <point x="223" y="174"/>
      <point x="352" y="127"/>
      <point x="391" y="107" type="curve"/>
      <point x="459" y="143"/>
      <point x="518" y="197"/>
    </contour>
  </outline>
</glyph>
<glyph name="dieresis" format="1">
  <advance width="468"/>
  <unicode hex="00A8"/>
  <outline>
    <contour>
      <point x="386" y="589" type="line"/>
      <point x="368" y="488" type="line"/>
      <point x="301" y="488" type="line"/>
      <point x="320" y="589" type="line"/>
    </contour>
    <contour>
      <point x="223" y="589" type="line"/>
      <point x="205" y="488" type="line"/>
      <point x="138" y="488" type="line"/>
      <point x="157" y="589" type="line"/>
    </contour>
  </outline>
</glyph>
<glyph name="ordfeminine" format="1">
  <advance width="413"/>
  <unicode hex="00AA"/>
  <outline>
    <contour>
      <point x="384" y="627" type="curve" smooth="yes"/>
      <point x="345" y="399" type="line"/>
      <point x="290" y="399" type="line"/>
      <point x="296" y="438" type="line"/>
      <point x="265" y="411"/>
      <point x="223" y="390"/>
      <point x="176" y="390" type="curve" smooth="yes"/>
      <point x="115" y="390"/>
      <point x="75" y="425"/>
      <point x="75" y="482" type="curve" smooth="yes"/>
      <point x="75" y="568"/>
      <point x="153" y="615"/>
      <point x="264" y="615" type="curve" smooth="yes"/>
      <point x="328" y="615" type="line"/>
      <point x="329" y="620"/>
      <point x="331" y="635"/>
      <point x="331" y="640" type="curve"/>
      <point x="335" y="676"/>
      <point x="314" y="695"/>
      <point x="264" y="695" type="curve" smooth="yes"/>
      <point x="222" y="695"/>
      <point x="187" y="687"/>
      <point x="159" y="673" type="curve"/>
      <point x="145" y="715" type="line"/>
      <point x="176" y="733"/>
      <point x="226" y="742"/>
      <point x="268" y="742" type="curve" smooth="yes"/>
      <point x="361" y="742"/>
      <point x="397" y="701"/>
    </contour>
    <contour>
      <point x="346" y="336" type="line"/>
      <point x="338" y="286" type="line"/>
      <point x="58" y="286" type="line"/>
      <point x="67" y="336" type="line"/>
    </contour>
    <contour>
      <point x="319" y="570" type="line"/>
      <point x="258" y="570" type="line" smooth="yes"/>
      <point x="186" y="570"/>
      <point x="131" y="543"/>
      <point x="131" y="491" type="curve" smooth="yes"/>
      <point x="131" y="457"/>
      <point x="152" y="437"/>
      <point x="188" y="437" type="curve" smooth="yes"/>
      <point x="232" y="437"/>
      <point x="279" y="468"/>
      <point x="306" y="493" type="curve"/>
    </contour>
  </outline>
</glyph>
<glyph name="guillemotleft" format="1">
  <advance width="332"/>
  <unicode hex="00AB"/>
  <outline>
    <contour>
      <point x="304" y="353" type="line"/>
      <point x="291" y="280" type="line"/>
      <point x="190" y="204" type="line"/>
      <point x="263" y="130" type="line"/>
      <point x="250" y="55" type="line"/>
      <point x="130" y="176" type="line"/>
      <point x="141" y="233" type="line"/>
    </contour>
    <contour>
      <point x="164" y="353" type="line"/>
      <point x="151" y="280" type="line"/>
      <point x="50" y="204" type="line"/>
      <point x="123" y="130" type="line"/>
      <point x="110" y="55" type="line"/>
      <point x="-9" y="176" type="line"/>
      <point x="1" y="233" type="line"/>
    </contour>
  </outline>
</glyph>
<glyph name="degree" format="1">
  <advance width="396"/>
  <unicode hex="00B0"/>
  <outline>
    <contour>
      <point x="397" y="571" type="curve" smooth="yes"/>
      <point x="397" y="476"/>
      <point x="320" y="400"/>
      <point x="226" y="400" type="curve" smooth="yes"/>
      <point x="131" y="400"/>
      <point x="55" y="476"/>
      <point x="55" y="571" type="curve" smooth="yes"/>
      <point x="55" y="666"/>
      <point x="131" y="742"/>
      <point x="226" y="742" type="curve" smooth="yes"/>
      <point x="320" y="742"/>
      <point x="397" y="666"/>
    </contour>
    <contour>
      <point x="339" y="571" type="curve" smooth="yes"/>
      <point x="339" y="634"/>
      <point x="289" y="684"/>
      <point x="226" y="684" type="curve" smooth="yes"/>
      <point x="163" y="684"/>
      <point x="113" y="634"/>
      <point x="113" y="571" type="curve" smooth="yes"/>
      <point x="113" y="508"/>
      <point x="163" y="458"/>
      <point x="226" y="458" type="curve" smooth="yes"/>
      <point x="289" y="458"/>
      <point x="339" y="508"/>
    </contour>
  </outline>
</glyph>
<glyph name="twosuperior" format="1">
  <advance width="397"/>
  <unicode hex="00B2"/>
  <outline>
    <contour>
      <point x="304" y="519" type="curve" smooth="yes"/>
      <point x="189" y="401" type="line"/>
      <point x="331" y="401" type="line"/>
      <point x="320" y="343" type="line"/>
      <point x="54" y="343" type="line"/>
      <point x="261" y="556" type="line" smooth="yes"/>
      <point x="287" y="583"/>
      <point x="305" y="608"/>
      <point x="305" y="635" type="curve" smooth="yes"/>
      <point x="305" y="665"/>
      <point x="282" y="683"/>
      <point x="252" y="683" type="curve" smooth="yes"/>
      <point x="212" y="683"/>
      <point x="191" y="657"/>
      <point x="179" y="609" type="curve"/>
      <point x="119" y="609" type="line"/>
      <point x="138" y="697"/>
      <point x="190" y="740"/>
      <point x="257" y="740" type="curve" smooth="yes"/>
      <point x="318" y="740"/>
      <point x="365" y="702"/>
      <point x="365" y="638" type="curve" smooth="yes"/>
      <point x="365" y="594"/>
      <point x="344" y="560"/>
    </contour>
  </outline>
</glyph>
<glyph name="acute" format="1">
  <advance width="468"/>
  <unicode hex="00B4"/>
  <outline>
    <contour>
      <point x="359" y="629" type="line"/>
      <point x="248" y="488" type="line"/>
      <point x="176" y="488" type="line"/>
      <point x="286" y="629" type="line"/>
    </contour>
  </outline>
</glyph>
<glyph name="paragraph" format="1">
  <advance width="643"/>
  <unicode hex="00B6"/>
  <outline>
    <contour>
      <point x="637" y="730" type="line"/>
      <point x="477" y="-179" type="line"/>
      <point x="412" y="-179" type="line"/>
      <point x="563" y="670" type="line"/>
      <point x="483" y="670" type="line"/>
      <point x="333" y="-179" type="line"/>
      <point x="268" y="-179" type="line"/>
      <point x="347" y="265" type="line"/>
      <point x="272" y="265" type="line" smooth="yes"/>
      <point x="138" y="265"/>
      <point x="47" y="347"/>
      <point x="47" y="462" type="curve" smooth="yes"/>
      <point x="47" y="617"/>
      <point x="178" y="730"/>
      <point x="340" y="730" type="curve" smooth="yes"/>
    </contour>
    <contour>
      <point x="419" y="670" type="line"/>
      <point x="336" y="670" type="line" smooth="yes"/>
      <point x="216" y="670"/>
      <point x="116" y="591"/>
      <point x="116" y="476" type="curve" smooth="yes"/>
      <point x="116" y="378"/>
      <point x="180" y="325"/>
      <point x="300" y="325" type="curve" smooth="yes"/>
      <point x="357" y="325" type="line"/>
    </contour>
  </outline>
</glyph>
<glyph name="periodcentered" format="1">
  <advance width="179"/>
  <unicode hex="00B7"/>
  <outline>
    <contour>
      <point x="132" y="408" type="line"/>
      <point x="114" y="312" type="line"/>
      <point x="45" y="312" type="line"/>
      <point x="62" y="408" type="line"/>
    </contour>
  </outline>
</glyph>
<glyph name="cedilla" format="1">
  <advance width="469"/>
  <unicode hex="00B8"/>
  <outline>
    <contour>
      <point x="271" y="-99" type="curve" smooth="yes"/>
      <point x="271" y="-153"/>
      <point x="224" y="-179"/>
      <point x="165" y="-179" type="curve" smooth="yes"/>
      <point x="129" y="-179"/>
      <point x="99" y="-166"/>
      <point x="74" y="-147" type="curve"/>
      <point x="98" y="-121" type="line"/>
      <point x="115" y="-136"/>
      <point x="138" y="-144"/>
      <point x="165" y="-144" type="curve" smooth="yes"/>
      <point x="191" y="-144"/>
      <point x="217" y="-130"/>
      <point x="217" y="-105" type="curve" smooth="yes"/>
      <point x="217" y="-88"/>
      <point x="202" y="-77"/>
      <point x="177" y="-77" type="curve" smooth="yes"/>
      <point x="163" y="-77"/>
      <point x="152" y="-78"/>
      <point x="137" y="-82" type="curve"/>
      <point x="125" y="-64" type="line"/>
      <point x="182" y="9" type="line"/>
      <point x="232" y="9" type="line"/>
      <point x="189" y="-47" type="line"/>
      <point x="192" y="-46"/>
      <point x="197" y="-46"/>
      <point x="203" y="-46" type="curve" smooth="yes"/>
      <point x="242" y="-46"/>
      <point x="271" y="-68"/>
    </contour>
  </outline>
</glyph>
<glyph name="ordmasculine" format="1">
  <advance width="430"/>
  <unicode hex="00BA"/>
  <outline>
    <contour>
      <point x="414" y="599" type="curve" smooth="yes"/>
      <point x="414" y="479"/>
      <point x="326" y="390"/>
      <point x="222" y="390" type="curve" smooth="yes"/>
      <point x="131" y="390"/>
      <point x="83" y="457"/>
      <point x="83" y="536" type="curve" smooth="yes"/>
      <point x="83" y="638"/>
      <point x="162" y="742"/>
      <point x="275" y="742" type="curve" smooth="yes"/>
      <point x="365" y="742"/>
      <point x="414" y="674"/>
    </contour>
    <contour>
      <point x="363" y="336" type="line"/>
      <point x="355" y="286" type="line"/>
      <point x="56" y="286" type="line"/>
      <point x="65" y="336" type="line"/>
    </contour>
    <contour>
      <point x="358" y="591" type="curve" smooth="yes"/>
      <point x="358" y="650"/>
      <point x="328" y="692"/>
      <point x="267" y="692" type="curve" smooth="yes"/>
      <point x="194" y="692"/>
      <point x="138" y="625"/>
      <point x="138" y="542" type="curve" smooth="yes"/>
      <point x="138" y="486"/>
      <point x="169" y="440"/>
      <point x="230" y="440" type="curve" smooth="yes"/>
      <point x="309" y="440"/>
      <point x="358" y="512"/>
    </contour>
  </outline>
</glyph>
<glyph name="guillemotright" format="1">
  <advance width="332"/>
  <unicode hex="00BB"/>
  <outline>
    <contour>
      <point x="292" y="234" type="line"/>
      <point x="281" y="177" type="line"/>
      <point x="117" y="55" type="line"/>
      <point x="131" y="130" type="line"/>
      <point x="232" y="207" type="line"/>
      <point x="160" y="280" type="line"/>
      <point x="171" y="354" type="line"/>
    </contour>
    <contour>
      <point x="152" y="234" type="line"/>
      <point x="141" y="177" type="line"/>
      <point x="-23" y="55" type="line"/>
      <point x="-9" y="130" type="line"/>
      <point x="92" y="207" type="line"/>
      <point x="19" y="280" type="line"/>
      <point x="31" y="354" type="line"/>
    </contour>
  </outline>
</glyph>
<glyph name="onequarter" format="1">
  <advance width="783"/>
  <unicode hex="00BC"/>
  <outline>
    <contour>
      <point x="122" y="335" type="line"/>
      <point x="176" y="643" type="line"/>
      <point x="162" y="624"/>
      <point x="129" y="611"/>
      <point x="101" y="608" type="curve"/>
      <point x="112" y="667" type="line"/>
      <point x="150" y="672"/>
      <point x="183" y="694"/>
      <point x="206" y="730" type="curve"/>
      <point x="251" y="730" type="line"/>
      <point x="181" y="335" type="line"/>
    </contour>
    <contour>
      <point x="733" y="730" type="line"/>
      <point x="105" y="0" type="line"/>
      <point x="36" y="0" type="line"/>
      <point x="664" y="730" type="line"/>
    </contour>
    <contour>
      <point x="629" y="93" type="line"/>
      <point x="613" y="0" type="line"/>
      <point x="554" y="0" type="line"/>
      <point x="570" y="93" type="line"/>
      <point x="404" y="93" type="line"/>
      <point x="412" y="134" type="line"/>
      <point x="638" y="391" type="line"/>
      <point x="682" y="391" type="line"/>
      <point x="639" y="149" type="line"/>
      <point x="694" y="149" type="line"/>
      <point x="684" y="93" type="line"/>
    </contour>
    <contour>
      <point x="602" y="275" type="line"/>
      <point x="492" y="149" type="line"/>
      <point x="580" y="149" type="line"/>
    </contour>
  </outline>
</glyph>
<glyph name="onehalf" format="1">
  <advance width="864"/>
  <unicode hex="00BD"/>
  <outline>
    <contour>
      <point x="132" y="335" type="line"/>
      <point x="186" y="643" type="line"/>
      <point x="172" y="624"/>
      <point x="139" y="611"/>
      <point x="111" y="608" type="curve"/>
      <point x="122" y="667" type="line"/>
      <point x="160" y="672"/>
      <point x="193" y="694"/>
      <point x="216" y="730" type="curve"/>
      <point x="261" y="730" type="line"/>
      <point x="191" y="335" type="line"/>
    </contour>
    <contour>
      <point x="743" y="730" type="line"/>
      <point x="115" y="0" type="line"/>
      <point x="46" y="0" type="line"/>
      <point x="674" y="730" type="line"/>
    </contour>
    <contour>
      <point x="690" y="176" type="curve" smooth="yes"/>
      <point x="575" y="58" type="line"/>
      <point x="717" y="58" type="line"/>
      <point x="706" y="0" type="line"/>
      <point x="440" y="0" type="line"/>
      <point x="647" y="213" type="line" smooth="yes"/>
      <point x="673" y="240"/>
      <point x="691" y="265"/>
      <point x="691" y="292" type="curve" smooth="yes"/>
      <point x="691" y="322"/>
      <point x="668" y="340"/>
      <point x="638" y="340" type="curve" smooth="yes"/>
      <point x="598" y="340"/>
      <point x="577" y="314"/>
      <point x="565" y="266" type="curve"/>
      <point x="505" y="266" type="line"/>
      <point x="524" y="354"/>
      <point x="576" y="397"/>
      <point x="643" y="397" type="curve" smooth="yes"/>
      <point x="704" y="397"/>
      <point x="751" y="359"/>
      <point x="751" y="295" type="curve" smooth="yes"/>
      <point x="751" y="251"/>
      <point x="730" y="217"/>
    </contour>
  </outline>
</glyph>
<glyph name="threequarters" format="1">
  <advance width="817"/>
  <unicode hex="00BE"/>
  <outline>
    <contour>
      <point x="289" y="552" type="curve"/>
      <point x="325" y="538"/>
      <point x="341" y="508"/>
      <point x="341" y="476" type="curve" smooth="yes"/>
      <point x="341" y="405"/>
      <point x="286" y="339"/>
      <point x="189" y="339" type="curve" smooth="yes"/>
      <point x="129" y="339"/>
      <point x="87" y="361"/>
      <point x="56" y="404" type="curve"/>
      <point x="99" y="446" type="line"/>
      <point x="128" y="407"/>
      <point x="155" y="394"/>
      <point x="193" y="394" type="curve" smooth="yes"/>
      <point x="246" y="394"/>
      <point x="281" y="429"/>
      <point x="281" y="474" type="curve" smooth="yes"/>
      <point x="281" y="506"/>
      <point x="255" y="526"/>
      <point x="212" y="526" type="curve" smooth="yes"/>
      <point x="165" y="526" type="line"/>
      <point x="176" y="581" type="line"/>
      <point x="219" y="581" type="line" smooth="yes"/>
      <point x="265" y="581"/>
      <point x="298" y="605"/>
      <point x="298" y="642" type="curve" smooth="yes"/>
      <point x="298" y="665"/>
      <point x="282" y="684"/>
      <point x="245" y="684" type="curve" smooth="yes"/>
      <point x="209" y="684"/>
      <point x="184" y="665"/>
      <point x="160" y="636" type="curve"/>
      <point x="113" y="667" type="line"/>
      <point x="149" y="711"/>
      <point x="190" y="740"/>
      <point x="250" y="740" type="curve" smooth="yes"/>
      <point x="321" y="740"/>
      <point x="358" y="698"/>
      <point x="358" y="651" type="curve" smooth="yes"/>
      <point x="358" y="604"/>
      <point x="334" y="568"/>
    </contour>
    <contour>
      <point x="786" y="730" type="line"/>
      <point x="158" y="0" type="line"/>
      <point x="89" y="0" type="line"/>
      <point x="717" y="730" type="line"/>
    </contour>
    <contour>
      <point x="663" y="93" type="line"/>
      <point x="647" y="0" type="line"/>
      <point x="588" y="0" type="line"/>
      <point x="604" y="93" type="line"/>
      <point x="438" y="93" type="line"/>
      <point x="446" y="134" type="line"/>
      <point x="672" y="391" type="line"/>
      <point x="716" y="391" type="line"/>
      <point x="673" y="149" type="line"/>
      <point x="728" y="149" type="line"/>
      <point x="718" y="93" type="line"/>
    </contour>
    <contour>
      <point x="636" y="275" type="line"/>
      <point x="526" y="149" type="line"/>
      <point x="614" y="149" type="line"/>
    </contour>
  </outline>
</glyph>
<glyph name="questiondown" format="1">
  <advance width="439"/>
  <unicode hex="00BF"/>
  <outline>
    <contour>
      <point x="335" y="735" type="line"/>
      <point x="318" y="640" type="line"/>
      <point x="248" y="640" type="line"/>
      <point x="265" y="735" type="line"/>
    </contour>
    <contour>
      <point x="368" y="86" type="line"/>
      <point x="313" y="22"/>
      <point x="247" y="-7"/>
      <point x="174" y="-7" type="curve" smooth="yes"/>
      <point x="73" y="-7"/>
      <point x="5" y="55"/>
      <point x="5" y="147" type="curve" smooth="yes"/>
      <point x="5" y="236"/>
      <point x="51" y="291"/>
      <point x="137" y="384" type="curve" smooth="yes"/>
      <point x="193" y="443"/>
      <point x="228" y="498"/>
      <point x="238" y="570" type="curve" smooth="yes"/>
      <point x="241" y="592" type="line"/>
      <point x="308" y="592" type="line"/>
      <point x="304" y="570" type="line" smooth="yes"/>
      <point x="287" y="479"/>
      <point x="251" y="419"/>
      <point x="182" y="345" type="curve" smooth="yes"/>
      <point x="108" y="265"/>
      <point x="76" y="221"/>
      <point x="76" y="161" type="curve" smooth="yes"/>
      <point x="76" y="97"/>
      <point x="117" y="56"/>
      <point x="183" y="56" type="curve" smooth="yes"/>
      <point x="239" y="56"/>
      <point x="288" y="83"/>
      <point x="327" y="131" type="curve"/>
    </contour>
  </outline>
</glyph>
<glyph name="Adieresis" format="1">
  <advance width="643"/>
  <unicode hex="00C4"/>
  <outline>
    <contour>
      <point x="585" y="729" type="line"/>
      <point x="567" y="628" type="line"/>
      <point x="500" y="628" type="line"/>
      <point x="519" y="729" type="line"/>
    </contour>
    <contour>
      <point x="247" y="729" type="line"/>
      <point x="229" y="628" type="line"/>
      <point x="162" y="628" type="line"/>
      <point x="181" y="729" type="line"/>
    </contour>
    <contour>
      <point x="549" y="0" type="line"/>
      <point x="475" y="0" type="line"/>
      <point x="428" y="260" type="line"/>
      <point x="178" y="260" type="line"/>
      <point x="37" y="0" type="line"/>
      <point x="-35" y="0" type="line"/>
      <point x="365" y="737" type="line"/>
      <point x="408" y="737" type="line"/>
    </contour>
    <contour>
      <point x="417" y="323" type="line"/>
      <point x="366" y="619" type="line"/>
      <point x="212" y="323" type="line"/>
    </contour>
  </outline>
</glyph>
<glyph name="Aring" format="1">
  <advance width="643"/>
  <unicode hex="00C5"/>
  <outline>
    <contour>
      <point x="416" y="697" type="curve"/>
      <point x="549" y="0" type="line"/>
      <point x="475" y="0" type="line"/>
      <point x="428" y="260" type="line"/>
      <point x="178" y="260" type="line"/>
      <point x="37" y="0" type="line"/>
      <point x="-35" y="0" type="line"/>
      <point x="345" y="701" type="line"/>
      <point x="309" y="716"/>
      <point x="283" y="752"/>
      <point x="283" y="796" type="curve" smooth="yes"/>
      <point x="283" y="856"/>
      <point x="332" y="904"/>
      <point x="392" y="904" type="curve" smooth="yes"/>
      <point x="448" y="904"/>
      <point x="494" y="859"/>
      <point x="494" y="802" type="curve" smooth="yes"/>
      <point x="494" y="752"/>
      <point x="461" y="710"/>
    </contour>
    <contour>
      <point x="449" y="801" type="curve" smooth="yes"/>
      <point x="449" y="833"/>
      <point x="424" y="859"/>
      <point x="392" y="859" type="curve" smooth="yes"/>
      <point x="358" y="859"/>
      <point x="329" y="832"/>
      <point x="329" y="797" type="curve" smooth="yes"/>
      <point x="329" y="764"/>
      <point x="354" y="738"/>
      <point x="385" y="738" type="curve" smooth="yes"/>
      <point x="422" y="738"/>
      <point x="449" y="768"/>
    </contour>
    <contour>
      <point x="417" y="323" type="line"/>
      <point x="366" y="619" type="line"/>
      <point x="212" y="323" type="line"/>
    </contour>
  </outline>
</glyph>
<glyph name="AE" format="1">
  <advance width="880"/>
  <unicode hex="00C6"/>
  <outline>
    <contour>
      <point x="890" y="730" type="line"/>
      <point x="878" y="665" type="line"/>
      <point x="568" y="665" type="line"/>
      <point x="521" y="404" type="line"/>
      <point x="812" y="404" type="line"/>
      <point x="800" y="340" type="line"/>
      <point x="510" y="340" type="line"/>
      <point x="461" y="65" type="line"/>
      <point x="792" y="65" type="line"/>
      <point x="780" y="0" type="line"/>
      <point x="383" y="0" type="line"/>
      <point x="429" y="258" type="line"/>
      <point x="234" y="258" type="line"/>
      <point x="38" y="0" type="line"/>
      <point x="-42" y="0" type="line"/>
      <point x="510" y="730" type="line"/>
    </contour>
    <contour>
      <point x="497" y="623" type="line"/>
      <point x="278" y="323" type="line"/>
      <point x="440" y="323" type="line"/>
    </contour>
  </outline>
</glyph>
<glyph name="Ccedilla" format="1">
  <advance width="704"/>
  <unicode hex="00C7"/>
  <outline>
    <contour>
      <point x="309" y="-10" type="line"/>
      <point x="151" y="5"/>
      <point x="39" y="128"/>
      <point x="39" y="300" type="curve" smooth="yes"/>
      <point x="39" y="548"/>
      <point x="240" y="742"/>
      <point x="458" y="742" type="curve" smooth="yes"/>
      <point x="575" y="742"/>
      <point x="651" y="691"/>
      <point x="698" y="625" type="curve"/>
      <point x="640" y="583" type="line"/>
      <point x="598" y="640"/>
      <point x="538" y="677"/>
      <point x="442" y="677" type="curve" smooth="yes"/>
      <point x="252" y="677"/>
      <point x="111" y="490"/>
      <point x="111" y="311" type="curve" smooth="yes"/>
      <point x="111" y="161"/>
      <point x="202" y="53"/>
      <point x="356" y="53" type="curve" smooth="yes"/>
      <point x="440" y="53"/>
      <point x="508" y="86"/>
      <point x="579" y="153" type="curve"/>
      <point x="622" y="109" type="line"/>
      <point x="557" y="44"/>
      <point x="467" y="-7"/>
      <point x="358" y="-12" type="curve"/>
      <point x="331" y="-47" type="line"/>
      <point x="334" y="-46"/>
      <point x="339" y="-46"/>
      <point x="345" y="-46" type="curve" smooth="yes"/>
      <point x="384" y="-46"/>
      <point x="413" y="-68"/>
      <point x="413" y="-99" type="curve" smooth="yes"/>
      <point x="413" y="-153"/>
      <point x="366" y="-179"/>
      <point x="307" y="-179" type="curve" smooth="yes"/>
      <point x="271" y="-179"/>
      <point x="241" y="-166"/>
      <point x="216" y="-147" type="curve"/>
      <point x="240" y="-121" type="line"/>
      <point x="257" y="-136"/>
      <point x="280" y="-144"/>
      <point x="307" y="-144" type="curve" smooth="yes"/>
      <point x="333" y="-144"/>
      <point x="359" y="-130"/>
      <point x="359" y="-105" type="curve" smooth="yes"/>
      <point x="359" y="-88"/>
      <point x="344" y="-77"/>
      <point x="319" y="-77" type="curve" smooth="yes"/>
      <point x="305" y="-77"/>
      <point x="294" y="-78"/>
      <point x="279" y="-82" type="curve"/>
      <point x="267" y="-64" type="line"/>
    </contour>
  </outline>
</glyph>
<glyph name="Eth" format="1">
  <advance width="673"/>
  <unicode hex="00D0"/>
  <outline>
    <contour>
      <point x="81" y="331" type="line"/>
      <point x="21" y="331" type="line"/>
      <point x="33" y="399" type="line"/>
      <point x="93" y="399" type="line"/>
      <point x="151" y="730" type="line"/>
      <point x="310" y="730" type="line" smooth="yes"/>
      <point x="502" y="730"/>
      <point x="637" y="628"/>
      <point x="637" y="439" type="curve" smooth="yes"/>
      <point x="637" y="167"/>
      <point x="431" y="0"/>
      <point x="187" y="0" type="curve" smooth="yes"/>
      <point x="22" y="0" type="line"/>
    </contour>
    <contour>
      <point x="164" y="399" type="line"/>
      <point x="343" y="399" type="line"/>
      <point x="332" y="331" type="line"/>
      <point x="152" y="331" type="line"/>
      <point x="105" y="63" type="line"/>
      <point x="190" y="63" type="line" smooth="yes"/>
      <point x="409" y="63"/>
      <point x="563" y="218"/>
      <point x="563" y="424" type="curve" smooth="yes"/>
      <point x="563" y="580"/>
      <point x="470" y="667"/>
      <point x="302" y="667" type="curve" smooth="yes"/>
      <point x="212" y="667" type="line"/>
    </contour>
  </outline>
</glyph>
<glyph name="multiply" format="1">
  <advance width="483"/>
  <unicode hex="00D7"/>
  <outline>
    <contour>
      <point x="66" y="138" type="line"/>
      <point x="25" y="188" type="line"/>
      <point x="192" y="330" type="line"/>
      <point x="76" y="470" type="line"/>
      <point x="128" y="516" type="line"/>
      <point x="244" y="374" type="line"/>
      <point x="411" y="516" type="line"/>
      <point x="452" y="466" type="line"/>
      <point x="285" y="324" type="line"/>
      <point x="401" y="184" type="line"/>
      <point x="349" y="138" type="line"/>
      <point x="233" y="280" type="line"/>
    </contour>
  </outline>
</glyph>
<glyph name="Oslash" format="1">
  <advance width="808"/>
  <unicode hex="00D8"/>
  <outline>
    <contour>
      <point x="769" y="437" type="curve" smooth="yes"/>
      <point x="769" y="180"/>
      <point x="567" y="-12"/>
      <point x="351" y="-12" type="curve" smooth="yes"/>
      <point x="264" y="-12"/>
      <point x="190" y="17"/>
      <point x="137" y="65" type="curve"/>
      <point x="65" y="-5" type="line"/>
      <point x="27" y="31" type="line"/>
      <point x="101" y="103" type="line"/>
      <point x="62" y="155"/>
      <point x="40" y="220"/>
      <point x="40" y="295" type="curve" smooth="yes"/>
      <point x="40" y="562"/>
      <point x="244" y="742"/>
      <point x="463" y="742" type="curve" smooth="yes"/>
      <point x="550" y="742"/>
      <point x="621" y="713"/>
      <point x="674" y="665" type="curve"/>
      <point x="753" y="742" type="line"/>
      <point x="790" y="705" type="line"/>
      <point x="790" y="705"/>
      <point x="721" y="638"/>
      <point x="709" y="627" type="curve"/>
      <point x="748" y="574"/>
      <point x="769" y="508"/>
    </contour>
    <contour>
      <point x="620" y="612" type="line"/>
      <point x="580" y="651"/>
      <point x="520" y="674"/>
      <point x="447" y="674" type="curve" smooth="yes"/>
      <point x="245" y="674"/>
      <point x="113" y="489"/>
      <point x="113" y="312" type="curve" smooth="yes"/>
      <point x="113" y="253"/>
      <point x="128" y="200"/>
      <point x="156" y="158" type="curve"/>
    </contour>
    <contour>
      <point x="696" y="425" type="curve" smooth="yes"/>
      <point x="696" y="480"/>
      <point x="682" y="531"/>
      <point x="655" y="572" type="curve"/>
      <point x="655" y="573"/>
      <point x="190" y="118"/>
      <point x="190" y="118" type="curve"/>
      <point x="233" y="79"/>
      <point x="292" y="56"/>
      <point x="363" y="56" type="curve" smooth="yes"/>
      <point x="551" y="56"/>
      <point x="696" y="235"/>
    </contour>
  </outline>
</glyph>
<glyph name="Udieresis" format="1">
  <advance width="675"/>
  <unicode hex="00DC"/>
  <outline>
    <contour>
      <point x="515" y="730" type="line"/>
      <point x="497" y="629" type="line"/>
      <point x="430" y="629" type="line"/>
      <point x="449" y="730" type="line"/>
    </contour>
    <contour>
      <point x="352" y="730" type="line"/>
      <point x="334" y="629" type="line"/>
      <point x="267" y="629" type="line"/>
      <point x="286" y="730" type="line"/>
    </contour>
    <contour>
      <point x="668" y="730" type="line"/>
      <point x="589" y="279" type="line" smooth="yes"/>
      <point x="558" y="100"/>
      <point x="433" y="-12"/>
      <point x="282" y="-12" type="curve" smooth="yes"/>
      <point x="127" y="-12"/>
      <point x="24" y="104"/>
      <point x="56" y="287" type="curve" smooth="yes"/>
      <point x="134" y="730" type="line"/>
      <point x="202" y="730" type="line"/>
      <point x="124" y="287" type="line" smooth="yes"/>
      <point x="97" y="133"/>
      <point x="177" y="52"/>
      <point x="291" y="52" type="curve" smooth="yes"/>
      <point x="400" y="52"/>
      <point x="495" y="133"/>
      <point x="522" y="284" type="curve" smooth="yes"/>
      <point x="601" y="730" type="line"/>
    </contour>
  </outline>
</glyph>
<glyph name="Thorn" format="1">
  <advance width="529"/>
  <unicode hex="00DE"/>
  <outline>
    <contour>
      <point x="501" y="412" type="curve" smooth="yes"/>
      <point x="501" y="268"/>
      <point x="383" y="161"/>
      <point x="224" y="161" type="curve" smooth="yes"/>
      <point x="108" y="161" type="line"/>
      <point x="79" y="0" type="line"/>
      <point x="9" y="0" type="line"/>
      <point x="137" y="730" type="line"/>
      <point x="208" y="730" type="line"/>
      <point x="183" y="590" type="line"/>
      <point x="286" y="590" type="line" smooth="yes"/>
      <point x="440" y="590"/>
      <point x="501" y="507"/>
    </contour>
    <contour>
      <point x="428" y="402" type="curve" smooth="yes"/>
      <point x="428" y="477"/>
      <point x="378" y="524"/>
      <point x="263" y="524" type="curve" smooth="yes"/>
      <point x="171" y="524" type="line"/>
      <point x="119" y="227" type="line"/>
      <point x="229" y="227" type="line" smooth="yes"/>
      <point x="349" y="227"/>
      <point x="428" y="299"/>
    </contour>
  </outline>
</glyph>
<glyph name="germandbls" format="1">
  <advance width="453"/>
  <unicode hex="00DF"/>
  <outline>
    <contour>
      <point x="422" y="608" type="curve" smooth="yes"/>
      <point x="422" y="502"/>
      <point x="342" y="427"/>
      <point x="286" y="416" type="curve"/>
      <point x="329" y="397"/>
      <point x="388" y="339"/>
      <point x="388" y="235" type="curve" smooth="yes"/>
      <point x="388" y="104"/>
      <point x="322" y="-12"/>
      <point x="190" y="-12" type="curve" smooth="yes"/>
      <point x="163" y="-12"/>
      <point x="141" y="-6"/>
      <point x="121" y="3" type="curve"/>
      <point x="136" y="63" type="line"/>
      <point x="151" y="55"/>
      <point x="172" y="50"/>
      <point x="195" y="50" type="curve" smooth="yes"/>
      <point x="276" y="50"/>
      <point x="318" y="131"/>
      <point x="318" y="226" type="curve" smooth="yes"/>
      <point x="318" y="315"/>
      <point x="271" y="389"/>
      <point x="200" y="399" type="curve"/>
      <point x="197" y="399" type="line"/>
      <point x="205" y="447" type="line"/>
      <point x="216" y="447" type="line" smooth="yes"/>
      <point x="285" y="447"/>
      <point x="354" y="514"/>
      <point x="354" y="599" type="curve" smooth="yes"/>
      <point x="354" y="651"/>
      <point x="326" y="686"/>
      <point x="277" y="686" type="curve" smooth="yes"/>
      <point x="213" y="686"/>
      <point x="172" y="633"/>
      <point x="159" y="557" type="curve" smooth="yes"/>
      <point x="29" y="-179" type="line"/>
      <point x="-37" y="-179" type="line"/>
      <point x="92" y="552" type="line" smooth="yes"/>
      <point x="112" y="666"/>
      <point x="171" y="742"/>
      <point x="285" y="742" type="curve" smooth="yes"/>
      <point x="363" y="742"/>
      <point x="422" y="688"/>
    </contour>
  </outline>
</glyph>
<glyph name="ae" format="1">
  <advance width="745"/>
  <unicode hex="00E6"/>
  <outline>
    <contour>
      <point x="681" y="257" type="curve" smooth="yes"/>
      <point x="681" y="238"/>
      <point x="681" y="215"/>
      <point x="675" y="201" type="curve"/>
      <point x="352" y="201" type="line"/>
      <point x="351" y="194"/>
      <point x="350" y="185"/>
      <point x="350" y="175" type="curve" smooth="yes"/>
      <point x="350" y="97"/>
      <point x="392" y="47"/>
      <point x="470" y="47" type="curve" smooth="yes"/>
      <point x="524" y="47"/>
      <point x="573" y="68"/>
      <point x="608" y="99" type="curve"/>
      <point x="644" y="58" type="line"/>
      <point x="606" y="21"/>
      <point x="548" y="-12"/>
      <point x="467" y="-12" type="curve" smooth="yes"/>
      <point x="390" y="-12"/>
      <point x="333" y="20"/>
      <point x="308" y="78" type="curve"/>
      <point x="262" y="30"/>
      <point x="191" y="-12"/>
      <point x="114" y="-12" type="curve" smooth="yes"/>
      <point x="40" y="-12"/>
      <point x="-9" y="31"/>
      <point x="-9" y="101" type="curve" smooth="yes"/>
      <point x="-9" y="206"/>
      <point x="87" y="263"/>
      <point x="222" y="263" type="curve" smooth="yes"/>
      <point x="300" y="263" type="line"/>
      <point x="300" y="265"/>
      <point x="302" y="277"/>
      <point x="302" y="278" type="curve"/>
      <point x="313" y="336"/>
      <point x="291" y="363"/>
      <point x="222" y="363" type="curve" smooth="yes"/>
      <point x="171" y="363"/>
      <point x="131" y="355"/>
      <point x="93" y="337" type="curve"/>
      <point x="77" y="388" type="line"/>
      <point x="119" y="410"/>
      <point x="176" y="420"/>
      <point x="227" y="420" type="curve" smooth="yes"/>
      <point x="303" y="420"/>
      <point x="348" y="391"/>
      <point x="357" y="347" type="curve"/>
      <point x="395" y="392"/>
      <point x="452" y="420"/>
      <point x="515" y="420" type="curve" smooth="yes"/>
      <point x="615" y="420"/>
      <point x="681" y="344"/>
    </contour>
    <contour>
      <point x="618" y="250" type="line"/>
      <point x="619" y="308"/>
      <point x="589" y="363"/>
      <point x="511" y="363" type="curve" smooth="yes"/>
      <point x="442" y="363"/>
      <point x="386" y="315"/>
      <point x="363" y="250" type="curve"/>
    </contour>
    <contour>
      <point x="289" y="209" type="curve"/>
      <point x="215" y="209" type="line" smooth="yes"/>
      <point x="128" y="209"/>
      <point x="59" y="176"/>
      <point x="59" y="111" type="curve" smooth="yes"/>
      <point x="59" y="69"/>
      <point x="87" y="45"/>
      <point x="129" y="45" type="curve" smooth="yes"/>
      <point x="181" y="45"/>
      <point x="243" y="83"/>
      <point x="284" y="125" type="curve"/>
      <point x="279" y="137"/>
      <point x="286" y="196"/>
    </contour>
  </outline>
</glyph>
<glyph name="ccedilla" format="1">
  <advance width="415"/>
  <unicode hex="00E7"/>
  <outline>
    <contour>
      <point x="141" y="-10" type="line"/>
      <point x="61" y="2"/>
      <point x="-1" y="70"/>
      <point x="-1" y="170" type="curve" smooth="yes"/>
      <point x="-1" y="291"/>
      <point x="95" y="420"/>
      <point x="229" y="420" type="curve" smooth="yes"/>
      <point x="310" y="420"/>
      <point x="351" y="387"/>
      <point x="378" y="353" type="curve"/>
      <point x="332" y="309" type="line"/>
      <point x="306" y="342"/>
      <point x="276" y="362"/>
      <point x="224" y="362" type="curve" smooth="yes"/>
      <point x="132" y="362"/>
      <point x="65" y="268"/>
      <point x="65" y="176" type="curve" smooth="yes"/>
      <point x="65" y="104"/>
      <point x="107" y="47"/>
      <point x="175" y="47" type="curve" smooth="yes"/>
      <point x="228" y="47"/>
      <point x="268" y="69"/>
      <point x="306" y="110" type="curve"/>
      <point x="345" y="71" type="line"/>
      <point x="306" y="28"/>
      <point x="256" y="-5"/>
      <point x="191" y="-11" type="curve"/>
      <point x="163" y="-47" type="line"/>
      <point x="166" y="-46"/>
      <point x="171" y="-46"/>
      <point x="177" y="-46" type="curve" smooth="yes"/>
      <point x="216" y="-46"/>
      <point x="245" y="-68"/>
      <point x="245" y="-99" type="curve" smooth="yes"/>
      <point x="245" y="-153"/>
      <point x="198" y="-179"/>
      <point x="139" y="-179" type="curve" smooth="yes"/>
      <point x="103" y="-179"/>
      <point x="73" y="-166"/>
      <point x="48" y="-147" type="curve"/>
      <point x="72" y="-121" type="line"/>
      <point x="89" y="-136"/>
      <point x="112" y="-144"/>
      <point x="139" y="-144" type="curve" smooth="yes"/>
      <point x="165" y="-144"/>
      <point x="191" y="-130"/>
      <point x="191" y="-105" type="curve" smooth="yes"/>
      <point x="191" y="-88"/>
      <point x="176" y="-77"/>
      <point x="151" y="-77" type="curve" smooth="yes"/>
      <point x="137" y="-77"/>
      <point x="126" y="-78"/>
      <point x="111" y="-82" type="curve"/>
      <point x="99" y="-64" type="line"/>
    </contour>
  </outline>
</glyph>
<glyph name="eth" format="1">
  <advance width="460"/>
  <unicode hex="00F0"/>
  <outline>
    <contour>
      <point x="411" y="258" type="curve" smooth="yes"/>
      <point x="411" y="83"/>
      <point x="312" y="-12"/>
      <point x="186" y="-12" type="curve" smooth="yes"/>
      <point x="77" y="-12"/>
      <point x="11" y="71"/>
      <point x="11" y="177" type="curve" smooth="yes"/>
      <point x="11" y="313"/>
      <point x="101" y="419"/>
      <point x="221" y="419" type="curve" smooth="yes"/>
      <point x="277" y="419"/>
      <point x="321" y="393"/>
      <point x="335" y="370" type="curve"/>
      <point x="325" y="436"/>
      <point x="293" y="503"/>
      <point x="253" y="565" type="curve"/>
      <point x="142" y="520" type="line"/>
      <point x="118" y="572" type="line"/>
      <point x="223" y="615" type="line"/>
      <point x="193" y="653"/>
      <point x="159" y="688"/>
      <point x="125" y="717" type="curve"/>
      <point x="156" y="749" type="line"/>
      <point x="201" y="718"/>
      <point x="242" y="680"/>
      <point x="276" y="636" type="curve"/>
      <point x="352" y="668" type="line"/>
      <point x="376" y="616" type="line"/>
      <point x="309" y="588" type="line"/>
      <point x="376" y="485"/>
      <point x="411" y="364"/>
    </contour>
    <contour>
      <point x="342" y="233" type="curve" smooth="yes"/>
      <point x="342" y="322"/>
      <point x="283" y="359"/>
      <point x="223" y="359" type="curve" smooth="yes"/>
      <point x="141" y="359"/>
      <point x="76" y="284"/>
      <point x="76" y="184" type="curve" smooth="yes"/>
      <point x="76" y="105"/>
      <point x="121" y="48"/>
      <point x="196" y="48" type="curve" smooth="yes"/>
      <point x="290" y="48"/>
      <point x="342" y="134"/>
    </contour>
  </outline>
</glyph>
<glyph name="oslash" format="1">
  <advance width="470"/>
  <unicode hex="00F8"/>
  <outline>
    <contour>
      <point x="433" y="393" type="line"/>
      <point x="383" y="347" type="line"/>
      <point x="404" y="318"/>
      <point x="415" y="281"/>
      <point x="415" y="244" type="curve" smooth="yes"/>
      <point x="415" y="96"/>
      <point x="311" y="-12"/>
      <point x="179" y="-12" type="curve" smooth="yes"/>
      <point x="128" y="-12"/>
      <point x="87" y="5"/>
      <point x="57" y="33" type="curve"/>
      <point x="7" y="-13" type="line"/>
      <point x="-22" y="16" type="line"/>
      <point x="30" y="66" type="line"/>
      <point x="12" y="95"/>
      <point x="2" y="130"/>
      <point x="2" y="167" type="curve" smooth="yes"/>
      <point x="2" y="293"/>
      <point x="97" y="420"/>
      <point x="239" y="420" type="curve" smooth="yes"/>
      <point x="288" y="420"/>
      <point x="327" y="403"/>
      <point x="356" y="378" type="curve"/>
      <point x="404" y="423" type="line"/>
    </contour>
    <contour>
      <point x="309" y="331" type="line"/>
      <point x="290" y="348"/>
      <point x="264" y="359"/>
      <point x="230" y="359" type="curve" smooth="yes"/>
      <point x="142" y="359"/>
      <point x="70" y="276"/>
      <point x="70" y="175" type="curve" smooth="yes"/>
      <point x="70" y="155"/>
      <point x="74" y="135"/>
      <point x="83" y="118" type="curve"/>
    </contour>
    <contour>
      <point x="347" y="235" type="curve" smooth="yes"/>
      <point x="347" y="257"/>
      <point x="342" y="278"/>
      <point x="332" y="296" type="curve"/>
      <point x="104" y="81" type="line"/>
      <point x="124" y="61"/>
      <point x="151" y="49"/>
      <point x="186" y="49" type="curve" smooth="yes"/>
      <point x="282" y="49"/>
      <point x="347" y="138"/>
    </contour>
  </outline>
</glyph>
<glyph name="thorn" format="1">
  <advance width="482"/>
  <unicode hex="00FE"/>
  <outline>
    <contour>
      <point x="426" y="241" type="curve" smooth="yes"/>
      <point x="426" y="109"/>
      <point x="323" y="-13"/>
      <point x="200" y="-13" type="curve" smooth="yes"/>
      <point x="136" y="-13"/>
      <point x="93" y="18"/>
      <point x="69" y="51" type="curve"/>
      <point x="28" y="-179" type="line"/>
      <point x="-39" y="-179" type="line"/>
      <point x="121" y="730" type="line"/>
      <point x="189" y="730" type="line"/>
      <point x="121" y="336" type="line"/>
      <point x="149" y="382"/>
      <point x="205" y="421"/>
      <point x="271" y="421" type="curve" smooth="yes"/>
      <point x="360" y="421"/>
      <point x="426" y="350"/>
    </contour>
    <contour>
      <point x="358" y="237" type="curve" smooth="yes"/>
      <point x="358" y="321"/>
      <point x="314" y="359"/>
      <point x="252" y="359" type="curve" smooth="yes"/>
      <point x="183" y="359"/>
      <point x="113" y="293"/>
      <point x="96" y="200" type="curve" smooth="yes"/>
      <point x="82" y="123" type="line"/>
      <point x="100" y="81"/>
      <point x="142" y="49"/>
      <point x="202" y="49" type="curve" smooth="yes"/>
      <point x="289" y="49"/>
      <point x="358" y="135"/>
    </contour>
  </outline>
</glyph>
<glyph name="dotlessi" format="1">
  <advance width="181"/>
  <unicode hex="0131"/>
  <outline>
    <contour>
      <point x="130" y="408" type="line"/>
      <point x="58" y="0" type="line"/>
      <point x="-6" y="0" type="line"/>
      <point x="66" y="408" type="line"/>
    </contour>
  </outline>
</glyph>
<glyph name="Lslash" format="1">
  <advance width="474"/>
  <unicode hex="0141"/>
  <outline>
    <contour>
      <point x="342" y="389" type="line"/>
      <point x="155" y="325" type="line"/>
      <point x="127" y="66" type="line"/>
      <point x="419" y="66" type="line"/>
      <point x="408" y="0" type="line"/>
      <point x="46" y="0" type="line"/>
      <point x="81" y="300" type="line"/>
      <point x="37" y="286" type="line"/>
      <point x="16" y="344" type="line"/>
      <point x="92" y="369" type="line"/>
      <point x="131" y="730" type="line"/>
      <point x="201" y="730" type="line"/>
      <point x="166" y="392" type="line"/>
      <point x="321" y="446" type="line"/>
    </contour>
  </outline>
</glyph>
<glyph name="lslash" format="1">
  <advance width="239"/>
  <unicode hex="0142"/>
  <outline>
    <contour>
      <point x="232" y="354" type="line"/>
      <point x="147" y="324" type="line"/>
      <point x="109" y="0" type="line"/>
      <point x="42" y="0" type="line"/>
      <point x="76" y="301" type="line"/>
      <point x="30" y="285" type="line"/>
      <point x="8" y="344" type="line"/>
      <point x="87" y="370" type="line"/>
      <point x="126" y="730" type="line"/>
      <point x="193" y="730" type="line"/>
      <point x="157" y="392" type="line"/>
      <point x="211" y="411" type="line"/>
    </contour>
  </outline>
</glyph>
<glyph name="OE" format="1">
  <advance width="1125"/>
  <unicode hex="0152"/>
  <outline>
    <contour>
      <point x="1135" y="730" type="line"/>
      <point x="1124" y="665" type="line"/>
      <point x="814" y="665" type="line"/>
      <point x="768" y="404" type="line"/>
      <point x="1056" y="404" type="line"/>
      <point x="1045" y="340" type="line"/>
      <point x="756" y="340" type="line"/>
      <point x="708" y="65" type="line"/>
      <point x="1036" y="65" type="line"/>
      <point x="1025" y="0" type="line"/>
      <point x="628" y="0" type="line"/>
      <point x="654" y="147" type="line"/>
      <point x="584" y="50"/>
      <point x="469" y="-12"/>
      <point x="351" y="-12" type="curve" smooth="yes"/>
      <point x="165" y="-12"/>
      <point x="40" y="117"/>
      <point x="40" y="295" type="curve" smooth="yes"/>
      <point x="40" y="562"/>
      <point x="244" y="742"/>
      <point x="463" y="742" type="curve" smooth="yes"/>
      <point x="593" y="742"/>
      <point x="699" y="664"/>
      <point x="728" y="568" type="curve"/>
      <point x="757" y="730" type="line"/>
    </contour>
    <contour>
      <point x="696" y="425" type="curve" smooth="yes"/>
      <point x="696" y="565"/>
      <point x="609" y="674"/>
      <point x="447" y="674" type="curve" smooth="yes"/>
      <point x="245" y="674"/>
      <point x="113" y="489"/>
      <point x="113" y="312" type="curve" smooth="yes"/>
      <point x="113" y="163"/>
      <point x="206" y="56"/>
      <point x="363" y="56" type="curve" smooth="yes"/>
      <point x="551" y="56"/>
      <point x="696" y="235"/>
    </contour>
  </outline>
</glyph>
<glyph name="oe" format="1">
  <advance width="803"/>
  <unicode hex="0153"/>
  <outline>
    <contour>
      <point x="738" y="257" type="curve" smooth="yes"/>
      <point x="738" y="238"/>
      <point x="737" y="216"/>
      <point x="733" y="201" type="curve"/>
      <point x="409" y="201" type="line"/>
      <point x="408" y="194"/>
      <point x="408" y="186"/>
      <point x="408" y="178" type="curve" smooth="yes"/>
      <point x="408" y="101"/>
      <point x="452" y="47"/>
      <point x="529" y="47" type="curve" smooth="yes"/>
      <point x="582" y="47"/>
      <point x="630" y="68"/>
      <point x="666" y="99" type="curve"/>
      <point x="701" y="58" type="line"/>
      <point x="663" y="21"/>
      <point x="605" y="-12"/>
      <point x="526" y="-12" type="curve" smooth="yes"/>
      <point x="446" y="-12"/>
      <point x="386" y="30"/>
      <point x="364" y="89" type="curve"/>
      <point x="327" y="29"/>
      <point x="255" y="-12"/>
      <point x="179" y="-12" type="curve" smooth="yes"/>
      <point x="68" y="-12"/>
      <point x="2" y="70"/>
      <point x="2" y="167" type="curve" smooth="yes"/>
      <point x="2" y="293"/>
      <point x="97" y="420"/>
      <point x="239" y="420" type="curve" smooth="yes"/>
      <point x="316" y="420"/>
      <point x="374" y="376"/>
      <point x="393" y="319" type="curve"/>
      <point x="425" y="377"/>
      <point x="495" y="420"/>
      <point x="573" y="420" type="curve" smooth="yes"/>
      <point x="673" y="420"/>
      <point x="738" y="344"/>
    </contour>
    <contour>
      <point x="675" y="250" type="line"/>
      <point x="677" y="308"/>
      <point x="646" y="363"/>
      <point x="569" y="363" type="curve" smooth="yes"/>
      <point x="499" y="363"/>
      <point x="443" y="315"/>
      <point x="420" y="250" type="curve"/>
    </contour>
    <contour>
      <point x="347" y="235" type="curve" smooth="yes"/>
      <point x="347" y="307"/>
      <point x="305" y="359"/>
      <point x="230" y="359" type="curve" smooth="yes"/>
      <point x="142" y="359"/>
      <point x="70" y="276"/>
      <point x="70" y="175" type="curve" smooth="yes"/>
      <point x="70" y="105"/>
      <point x="110" y="49"/>
      <point x="186" y="49" type="curve" smooth="yes"/>
      <point x="282" y="49"/>
      <point x="347" y="138"/>
    </contour>
  </outline>
</glyph>
<glyph name="florin" format="1">
  <advance width="269"/>
  <unicode hex="0192"/>
  <outline>
    <contour>
      <point x="305" y="725" type="curve"/>
      <point x="292" y="669" type="line"/>
      <point x="286" y="671"/>
      <point x="270" y="673"/>
      <point x="258" y="673" type="curve" smooth="yes"/>
      <point x="216" y="673"/>
      <point x="200" y="641"/>
      <point x="190" y="582" type="curve" smooth="yes"/>
      <point x="160" y="411" type="line"/>
      <point x="240" y="411" type="line"/>
      <point x="230" y="349" type="line"/>
      <point x="150" y="349" type="line"/>
      <point x="80" y="-53" type="line" smooth="yes"/>
      <point x="64" y="-147"/>
      <point x="16" y="-179"/>
      <point x="-42" y="-179" type="curve" smooth="yes"/>
      <point x="-62" y="-179"/>
      <point x="-79" y="-177"/>
      <point x="-90" y="-172" type="curve"/>
      <point x="-78" y="-116" type="line"/>
      <point x="-71" y="-118"/>
      <point x="-62" y="-120"/>
      <point x="-50" y="-120" type="curve" smooth="yes"/>
      <point x="-8" y="-120"/>
      <point x="7" y="-93"/>
      <point x="18" y="-30" type="curve" smooth="yes"/>
      <point x="83" y="349" type="line"/>
      <point x="29" y="349" type="line"/>
      <point x="40" y="411" type="line"/>
      <point x="40" y="411"/>
      <point x="94" y="411"/>
      <point x="93" y="411" type="curve"/>
      <point x="128" y="605" type="line" smooth="yes"/>
      <point x="144" y="695"/>
      <point x="192" y="732"/>
      <point x="249" y="732" type="curve" smooth="yes"/>
      <point x="270" y="732"/>
      <point x="294" y="731"/>
    </contour>
  </outline>
</glyph>
<glyph name="circumflex" format="1">
  <advance width="469"/>
  <unicode hex="02C6"/>
  <outline>
    <contour>
      <point x="382" y="488" type="line"/>
      <point x="316" y="488" type="line"/>
      <point x="265" y="579" type="line"/>
      <point x="183" y="488" type="line"/>
      <point x="113" y="488" type="line"/>
      <point x="240" y="627" type="line"/>
      <point x="303" y="627" type="line"/>
    </contour>
  </outline>
</glyph>
<glyph name="caron" format="1">
  <advance width="469"/>
  <unicode hex="02C7"/>
  <outline>
    <contour>
      <point x="403" y="627" type="line"/>
      <point x="275" y="488" type="line"/>
      <point x="212" y="488" type="line"/>
      <point x="133" y="627" type="line"/>
      <point x="202" y="627" type="line"/>
      <point x="252" y="539" type="line"/>
      <point x="335" y="627" type="line"/>
    </contour>
  </outline>
</glyph>
<glyph name="breve" format="1">
  <advance width="469"/>
  <unicode hex="02D8"/>
  <outline>
    <contour>
      <point x="409" y="625" type="line"/>
      <point x="388" y="535"/>
      <point x="320" y="485"/>
      <point x="244" y="485" type="curve" smooth="yes"/>
      <point x="168" y="485"/>
      <point x="118" y="535"/>
      <point x="129" y="625" type="curve"/>
      <point x="186" y="625" type="line"/>
      <point x="182" y="582"/>
      <point x="205" y="540"/>
      <point x="253" y="540" type="curve" smooth="yes"/>
      <point x="303" y="540"/>
      <point x="341" y="583"/>
      <point x="353" y="625" type="curve"/>
    </contour>
  </outline>
</glyph>
<glyph name="dotaccent" format="1">
  <advance width="469"/>
  <unicode hex="02D9"/>
  <outline>
    <contour>
      <point x="262" y="592" type="line"/>
      <point x="245" y="498" type="line"/>
      <point x="177" y="498" type="line"/>
      <point x="194" y="592" type="line"/>
    </contour>
  </outline>
</glyph>
<glyph name="ring" format="1">
  <advance width="469"/>
  <unicode hex="02DA"/>
  <outline>
    <contour>
      <point x="364" y="592" type="curve" smooth="yes"/>
      <point x="364" y="531"/>
      <point x="315" y="483"/>
      <point x="255" y="483" type="curve" smooth="yes"/>
      <point x="199" y="483"/>
      <point x="153" y="528"/>
      <point x="153" y="586" type="curve" smooth="yes"/>
      <point x="153" y="646"/>
      <point x="202" y="694"/>
      <point x="262" y="694" type="curve" smooth="yes"/>
      <point x="318" y="694"/>
      <point x="364" y="649"/>
    </contour>
    <contour>
      <point x="319" y="591" type="curve" smooth="yes"/>
      <point x="319" y="623"/>
      <point x="294" y="649"/>
      <point x="262" y="649" type="curve" smooth="yes"/>
      <point x="228" y="649"/>
      <point x="199" y="622"/>
      <point x="199" y="587" type="curve" smooth="yes"/>
      <point x="199" y="554"/>
      <point x="224" y="528"/>
      <point x="255" y="528" type="curve" smooth="yes"/>
      <point x="292" y="528"/>
      <point x="319" y="558"/>
    </contour>
  </outline>
</glyph>
<glyph name="ogonek" format="1">
  <advance width="469"/>
  <unicode hex="02DB"/>
  <outline>
    <contour>
      <point x="291" y="-149" type="line"/>
      <point x="263" y="-171"/>
      <point x="231" y="-181"/>
      <point x="195" y="-181" type="curve" smooth="yes"/>
      <point x="142" y="-181"/>
      <point x="86" y="-153"/>
      <point x="86" y="-101" type="curve" smooth="yes"/>
      <point x="86" y="-64"/>
      <point x="118" y="-23"/>
      <point x="190" y="11" type="curve"/>
      <point x="245" y="11" type="line"/>
      <point x="176" y="-30"/>
      <point x="147" y="-65"/>
      <point x="147" y="-98" type="curve" smooth="yes"/>
      <point x="147" y="-129"/>
      <point x="171" y="-142"/>
      <point x="198" y="-142" type="curve" smooth="yes"/>
      <point x="224" y="-142"/>
      <point x="245" y="-136"/>
      <point x="270" y="-120" type="curve"/>
    </contour>
  </outline>
</glyph>
<glyph name="tilde" format="1">
  <advance width="469"/>
  <unicode hex="02DC"/>
  <outline>
    <contour>
      <point x="410" y="595" type="line"/>
      <point x="400" y="529"/>
      <point x="368" y="485"/>
      <point x="313" y="485" type="curve" smooth="yes"/>
      <point x="287" y="485"/>
      <point x="263" y="505"/>
      <point x="246" y="519" type="curve" smooth="yes"/>
      <point x="230" y="532"/>
      <point x="217" y="543"/>
      <point x="198" y="543" type="curve" smooth="yes"/>
      <point x="179" y="543"/>
      <point x="167" y="520"/>
      <point x="162" y="488" type="curve"/>
      <point x="107" y="488" type="line"/>
      <point x="116" y="550"/>
      <point x="146" y="598"/>
      <point x="204" y="598" type="curve" smooth="yes"/>
      <point x="229" y="598"/>
      <point x="253" y="580"/>
      <point x="271" y="567" type="curve"/>
      <point x="287" y="553"/>
      <point x="301" y="540"/>
      <point x="318" y="540" type="curve" smooth="yes"/>
      <point x="337" y="540"/>
      <point x="349" y="560"/>
      <point x="354" y="595" type="curve"/>
    </contour>
  </outline>
</glyph>
<glyph name="hungarumlaut" format="1">
  <advance width="469"/>
  <unicode hex="02DD"/>
  <outline>
    <contour>
      <point x="406" y="629" type="line"/>
      <point x="315" y="488" type="line"/>
      <point x="250" y="488" type="line"/>
      <point x="337" y="629" type="line"/>
    </contour>
    <contour>
      <point x="266" y="629" type="line"/>
      <point x="175" y="488" type="line"/>
      <point x="109" y="488" type="line"/>
      <point x="197" y="629" type="line"/>
    </contour>
  </outline>
</glyph>
<glyph name="endash" format="1">
  <advance width="423"/>
  <unicode hex="2013"/>
  <outline>
    <contour>
      <point x="348" y="250" type="line"/>
      <point x="338" y="189" type="line"/>
      <point x="21" y="189" type="line"/>
      <point x="31" y="250" type="line"/>
    </contour>
  </outline>
</glyph>
<glyph name="emdash" format="1">
  <advance width="595"/>
  <unicode hex="2014"/>
  <outline>
    <contour>
      <point x="520" y="250" type="line"/>
      <point x="509" y="189" type="line"/>
      <point x="21" y="189" type="line"/>
      <point x="32" y="250" type="line"/>
    </contour>
  </outline>
</glyph>
<glyph name="quoteleft" format="1">
  <advance width="178"/>
  <unicode hex="2018"/>
  <unicode hex="02BB"/>
  <outline>
    <contour>
      <point x="210" y="730" type="line"/>
      <point x="188" y="703"/>
      <point x="173" y="664"/>
      <point x="166" y="624" type="curve" smooth="yes"/>
      <point x="150" y="535" type="line"/>
      <point x="78" y="535" type="line"/>
      <point x="90" y="602" type="line" smooth="yes"/>
      <point x="99" y="650"/>
      <point x="139" y="704"/>
      <point x="167" y="730" type="curve"/>
    </contour>
  </outline>
</glyph>
<glyph name="quoteright" format="1">
  <advance width="178"/>
  <unicode hex="2019"/>
  <unicode hex="02BC"/>
  <outline>
    <contour>
      <point x="192" y="730" type="line"/>
      <point x="181" y="663" type="line" smooth="yes"/>
      <point x="173" y="615"/>
      <point x="131" y="561"/>
      <point x="103" y="535" type="curve"/>
      <point x="61" y="535" type="line"/>
      <point x="82" y="562"/>
      <point x="97" y="601"/>
      <point x="104" y="641" type="curve" smooth="yes"/>
      <point x="120" y="730" type="line"/>
    </contour>
  </outline>
</glyph>
<glyph name="quotesinglbase" format="1">
  <advance width="178"/>
  <unicode hex="201A"/>
  <outline>
    <contour>
      <point x="78" y="98" type="line"/>
      <point x="66" y="31" type="line" smooth="yes"/>
      <point x="57" y="-17"/>
      <point x="17" y="-71"/>
      <point x="-11" y="-97" type="curve"/>
      <point x="-54" y="-97" type="line"/>
      <point x="-32" y="-70"/>
      <point x="-17" y="-31"/>
      <point x="-10" y="9" type="curve" smooth="yes"/>
      <point x="6" y="98" type="line"/>
    </contour>
  </outline>
</glyph>
<glyph name="quotedblleft" format="1">
  <advance width="307"/>
  <unicode hex="201C"/>
  <outline>
    <contour>
      <point x="339" y="730" type="line"/>
      <point x="317" y="703"/>
      <point x="302" y="664"/>
      <point x="295" y="624" type="curve" smooth="yes"/>
      <point x="279" y="535" type="line"/>
      <point x="207" y="535" type="line"/>
      <point x="219" y="602" type="line" smooth="yes"/>
      <point x="228" y="650"/>
      <point x="268" y="704"/>
      <point x="296" y="730" type="curve"/>
    </contour>
    <contour>
      <point x="210" y="730" type="line"/>
      <point x="188" y="703"/>
      <point x="173" y="664"/>
      <point x="166" y="624" type="curve" smooth="yes"/>
      <point x="150" y="535" type="line"/>
      <point x="78" y="535" type="line"/>
      <point x="90" y="602" type="line" smooth="yes"/>
      <point x="99" y="650"/>
      <point x="139" y="704"/>
      <point x="167" y="730" type="curve"/>
    </contour>
  </outline>
</glyph>
<glyph name="quotedblright" format="1">
  <advance width="307"/>
  <unicode hex="201D"/>
  <outline>
    <contour>
      <point x="321" y="730" type="line"/>
      <point x="310" y="663" type="line" smooth="yes"/>
      <point x="302" y="615"/>
      <point x="260" y="561"/>
      <point x="232" y="535" type="curve"/>
      <point x="190" y="535" type="line"/>
      <point x="211" y="562"/>
      <point x="226" y="601"/>
      <point x="233" y="641" type="curve" smooth="yes"/>
      <point x="249" y="730" type="line"/>
    </contour>
    <contour>
      <point x="192" y="730" type="line"/>
      <point x="181" y="663" type="line" smooth="yes"/>
      <point x="173" y="615"/>
      <point x="131" y="561"/>
      <point x="103" y="535" type="curve"/>
      <point x="61" y="535" type="line"/>
      <point x="82" y="562"/>
      <point x="97" y="601"/>
      <point x="104" y="641" type="curve" smooth="yes"/>
      <point x="120" y="730" type="line"/>
    </contour>
  </outline>
</glyph>
<glyph name="quotedblbase" format="1">
  <advance width="307"/>
  <unicode hex="201E"/>
  <outline>
    <contour>
      <point x="207" y="98" type="line"/>
      <point x="195" y="31" type="line" smooth="yes"/>
      <point x="186" y="-17"/>
      <point x="146" y="-71"/>
      <point x="118" y="-97" type="curve"/>
      <point x="75" y="-97" type="line"/>
      <point x="97" y="-70"/>
      <point x="112" y="-31"/>
      <point x="119" y="9" type="curve" smooth="yes"/>
      <point x="135" y="98" type="line"/>
    </contour>
    <contour>
      <point x="78" y="98" type="line"/>
      <point x="66" y="31" type="line" smooth="yes"/>
      <point x="57" y="-17"/>
      <point x="17" y="-71"/>
      <point x="-11" y="-97" type="curve"/>
      <point x="-54" y="-97" type="line"/>
      <point x="-32" y="-70"/>
      <point x="-17" y="-31"/>
      <point x="-10" y="9" type="curve" smooth="yes"/>
      <point x="6" y="98" type="line"/>
    </contour>
  </outline>
</glyph>
<glyph name="dagger" format="1">
  <advance width="508"/>
  <unicode hex="2020"/>
  <outline>
    <contour>
      <point x="502" y="451" type="line"/>
      <point x="493" y="394" type="line"/>
      <point x="290" y="394" type="line"/>
      <point x="188" y="-179" type="line"/>
      <point x="125" y="-179" type="line"/>
      <point x="227" y="394" type="line"/>
      <point x="24" y="394" type="line"/>
      <point x="34" y="451" type="line"/>
      <point x="236" y="451" type="line"/>
      <point x="286" y="730" type="line"/>
      <point x="349" y="730" type="line"/>
      <point x="300" y="451" type="line"/>
    </contour>
  </outline>
</glyph>
<glyph name="daggerdbl" format="1">
  <advance width="508"/>
  <unicode hex="2021"/>
  <outline>
    <contour>
      <point x="502" y="451" type="line"/>
      <point x="493" y="394" type="line"/>
      <point x="290" y="394" type="line"/>
      <point x="251" y="170" type="line"/>
      <point x="453" y="170" type="line"/>
      <point x="443" y="113" type="line"/>
      <point x="240" y="113" type="line"/>
      <point x="188" y="-179" type="line"/>
      <point x="125" y="-179" type="line"/>
      <point x="177" y="113" type="line"/>
      <point x="-25" y="113" type="line"/>
      <point x="-15" y="170" type="line"/>
      <point x="187" y="170" type="line"/>
      <point x="227" y="394" type="line"/>
      <point x="24" y="394" type="line"/>
      <point x="34" y="451" type="line"/>
      <point x="236" y="451" type="line"/>
      <point x="286" y="730" type="line"/>
      <point x="349" y="730" type="line"/>
      <point x="300" y="451" type="line"/>
    </contour>
  </outline>
</glyph>
<glyph name="ellipsis" format="1">
  <advance width="542"/>
  <unicode hex="2026"/>
  <outline>
    <contour>
      <point x="446" y="101" type="line"/>
      <point x="428" y="0" type="line"/>
      <point x="356" y="0" type="line"/>
      <point x="374" y="101" type="line"/>
    </contour>
    <contour>
      <point x="262" y="101" type="line"/>
      <point x="244" y="0" type="line"/>
      <point x="172" y="0" type="line"/>
      <point x="190" y="101" type="line"/>
    </contour>
    <contour>
      <point x="79" y="101" type="line"/>
      <point x="61" y="0" type="line"/>
      <point x="-12" y="0" type="line"/>
      <point x="7" y="101" type="line"/>
    </contour>
  </outline>
</glyph>
<glyph name="guilsinglleft" format="1">
  <advance width="194"/>
  <unicode hex="2039"/>
  <outline>
    <contour>
      <point x="165" y="353" type="line"/>
      <point x="152" y="280" type="line"/>
      <point x="51" y="204" type="line"/>
      <point x="124" y="130" type="line"/>
      <point x="111" y="55" type="line"/>
      <point x="-8" y="176" type="line"/>
      <point x="3" y="233" type="line"/>
    </contour>
  </outline>
</glyph>
<glyph name="guilsinglright" format="1">
  <advance width="207"/>
  <unicode hex="203A"/>
  <outline>
    <contour>
      <point x="167" y="234" type="line"/>
      <point x="156" y="177" type="line"/>
      <point x="-8" y="56" type="line"/>
      <point x="6" y="130" type="line"/>
      <point x="108" y="207" type="line"/>
      <point x="35" y="280" type="line"/>
      <point x="46" y="353" type="line"/>
    </contour>
  </outline>
</glyph>
<glyph name="fraction" format="1">
  <advance width="382"/>
  <unicode hex="2044"/>
  <outline>
    <contour>
      <point x="490" y="730" type="line"/>
      <point x="-35" y="0" type="line"/>
      <point x="-109" y="0" type="line"/>
      <point x="417" y="730" type="line"/>
    </contour>
  </outline>
</glyph>
<glyph name="Euro" format="1">
  <advance width="585"/>
  <unicode hex="20AC"/>
  <outline>
    <contour>
      <point x="600" y="592" type="curve"/>
      <point x="534" y="557" type="line"/>
      <point x="508" y="628"/>
      <point x="464" y="677"/>
      <point x="398" y="677" type="curve" smooth="yes"/>
      <point x="300" y="677"/>
      <point x="222" y="569"/>
      <point x="185" y="441" type="curve"/>
      <point x="435" y="441" type="line"/>
      <point x="429" y="400" type="line"/>
      <point x="175" y="400" type="line"/>
      <point x="170" y="371"/>
      <point x="166" y="341"/>
      <point x="164" y="312" type="curve"/>
      <point x="412" y="312" type="line"/>
      <point x="406" y="271" type="line"/>
      <point x="163" y="271" type="line"/>
      <point x="167" y="123"/>
      <point x="222" y="53"/>
      <point x="309" y="53" type="curve" smooth="yes"/>
      <point x="368" y="53"/>
      <point x="409" y="84"/>
      <point x="463" y="148" type="curve"/>
      <point x="515" y="107" type="line"/>
      <point x="454" y="34"/>
      <point x="395" y="-12"/>
      <point x="303" y="-12" type="curve" smooth="yes"/>
      <point x="177" y="-12"/>
      <point x="92" y="74"/>
      <point x="89" y="271" type="curve"/>
      <point x="17" y="271" type="line"/>
      <point x="24" y="312" type="line"/>
      <point x="90" y="312" type="line"/>
      <point x="92" y="342"/>
      <point x="95" y="371"/>
      <point x="101" y="400" type="curve"/>
      <point x="41" y="400" type="line"/>
      <point x="47" y="441" type="line"/>
      <point x="110" y="441" type="line"/>
      <point x="153" y="605"/>
      <point x="261" y="742"/>
      <point x="405" y="742" type="curve" smooth="yes"/>
      <point x="510" y="742"/>
      <point x="568" y="676"/>
    </contour>
  </outline>
</glyph>
<glyph name="uni2117" format="1">
  <advance width="844"/>
  <unicode hex="2117"/>
  <outline>
    <contour>
      <point x="799" y="365" type="curve" smooth="yes"/>
      <point x="799" y="157"/>
      <point x="630" y="-12"/>
      <point x="422" y="-12" type="curve" smooth="yes"/>
      <point x="214" y="-12"/>
      <point x="45" y="157"/>
      <point x="45" y="365" type="curve" smooth="yes"/>
      <point x="45" y="573"/>
      <point x="214" y="742"/>
      <point x="422" y="742" type="curve" smooth="yes"/>
      <point x="630" y="742"/>
      <point x="799" y="573"/>
    </contour>
    <contour>
      <point x="756" y="364" type="curve" smooth="yes"/>
      <point x="756" y="548"/>
      <point x="607" y="699"/>
      <point x="422" y="699" type="curve" smooth="yes"/>
      <point x="237" y="699"/>
      <point x="88" y="548"/>
      <point x="88" y="364" type="curve" smooth="yes"/>
      <point x="88" y="180"/>
      <point x="237" y="30"/>
      <point x="422" y="30" type="curve" smooth="yes"/>
      <point x="607" y="30"/>
      <point x="756" y="180"/>
    </contour>
    <contour>
      <point x="581" y="455" type="curve" smooth="yes"/>
      <point x="581" y="379"/>
      <point x="521" y="322"/>
      <point x="442" y="322" type="curve" smooth="yes"/>
      <point x="366" y="322" type="line"/>
      <point x="366" y="146" type="line"/>
      <point x="315" y="146" type="line"/>
      <point x="315" y="584" type="line"/>
      <point x="437" y="584" type="line" smooth="yes"/>
      <point x="525" y="584"/>
      <point x="581" y="531"/>
    </contour>
    <contour>
      <point x="528" y="456" type="curve" smooth="yes"/>
      <point x="528" y="505"/>
      <point x="493" y="536"/>
      <point x="433" y="536" type="curve" smooth="yes"/>
      <point x="366" y="536" type="line"/>
      <point x="366" y="371" type="line"/>
      <point x="431" y="371" type="line" smooth="yes"/>
      <point x="500" y="371"/>
      <point x="528" y="406"/>
    </contour>
  </outline>
</glyph>
<glyph name="minus" format="1">
  <advance width="525"/>
  <unicode hex="2212"/>
  <outline>
    <contour>
      <point x="26" y="288" type="line"/>
      <point x="37" y="350" type="line"/>
      <point x="488" y="350" type="line"/>
      <point x="477" y="288" type="line"/>
    </contour>
  </outline>
</glyph>
<glyph name="radical" format="1">
  <advance width="495"/>
  <unicode hex="221A"/>
  <outline>
    <contour>
      <point x="537" y="730" type="line"/>
      <point x="155" y="-10" type="line"/>
      <point x="113" y="-10" type="line"/>
      <point x="2" y="316" type="line"/>
      <point x="76" y="316" type="line"/>
      <point x="137" y="126" type="line"/>
      <point x="146" y="98" type="line"/>
      <point x="158" y="124" type="line"/>
      <point x="467" y="730" type="line"/>
    </contour>
  </outline>
</glyph>
<glyph name="f_f_l" format="1">
  <advance width="625"/>
  <unicode hex="FB04"/>
  <outline>
    <contour>
      <point x="630" y="730" type="line"/>
      <point x="501" y="0" type="line"/>
      <point x="438" y="0" type="line"/>
      <point x="567" y="730" type="line"/>
    </contour>
    <contour>
      <point x="497" y="727" type="curve"/>
      <point x="485" y="671" type="line"/>
      <point x="481" y="673"/>
      <point x="459" y="674"/>
      <point x="451" y="674" type="curve" smooth="yes"/>
      <point x="422" y="674"/>
      <point x="405" y="654"/>
      <point x="395" y="597" type="curve" smooth="yes"/>
      <point x="361" y="408" type="line"/>
      <point x="437" y="408" type="line"/>
      <point x="427" y="350" type="line"/>
      <point x="351" y="350" type="line"/>
      <point x="258" y="-179" type="line"/>
      <point x="194" y="-179" type="line"/>
      <point x="288" y="350" type="line"/>
      <point x="132" y="350" type="line"/>
      <point x="39" y="-179" type="line"/>
      <point x="-25" y="-179" type="line"/>
      <point x="68" y="350" type="line"/>
      <point x="7" y="350" type="line"/>
      <point x="17" y="408" type="line"/>
      <point x="79" y="408" type="line"/>
      <point x="115" y="617" type="line" smooth="yes"/>
      <point x="129" y="699"/>
      <point x="177" y="731"/>
      <point x="228" y="731" type="curve" smooth="yes"/>
      <point x="243" y="731"/>
      <point x="270" y="730"/>
      <point x="278" y="727" type="curve"/>
      <point x="266" y="671" type="line"/>
      <point x="262" y="673"/>
      <point x="240" y="674"/>
      <point x="231" y="674" type="curve" smooth="yes"/>
      <point x="203" y="674"/>
      <point x="185" y="654"/>
      <point x="175" y="597" type="curve" smooth="yes"/>
      <point x="142" y="408" type="line"/>
      <point x="298" y="408" type="line"/>
      <point x="334" y="617" type="line" smooth="yes"/>
      <point x="348" y="699"/>
      <point x="396" y="731"/>
      <point x="447" y="731" type="curve" smooth="yes"/>
      <point x="462" y="731"/>
      <point x="490" y="730"/>
    </contour>
  </outline>
</glyph>
<glyph name="a.salt" format="1">
  <advance width="479"/>
  <outline>
    <contour>
      <point x="430" y="408" type="line"/>
      <point x="358" y="-1" type="line"/>
      <point x="294" y="-1" type="line"/>
      <point x="307" y="73" type="line"/>
      <point x="277" y="29"/>
      <point x="223" y="-13"/>
      <point x="154" y="-13" type="curve" smooth="yes"/>
      <point x="65" y="-13"/>
      <point x="0" y="58"/>
      <point x="0" y="166" type="curve" smooth="yes"/>
      <point x="0" y="299"/>
      <point x="102" y="419"/>
      <point x="225" y="419" type="curve" smooth="yes"/>
      <point x="290" y="419"/>
      <point x="333" y="387"/>
      <point x="357" y="352" type="curve"/>
      <point x="367" y="408" type="line"/>
    </contour>
    <contour>
      <point x="344" y="280" type="line"/>
      <point x="323" y="327"/>
      <point x="282" y="361"/>
      <point x="220" y="361" type="curve" smooth="yes"/>
      <point x="133" y="361"/>
      <point x="66" y="274"/>
      <point x="66" y="170" type="curve" smooth="yes"/>
      <point x="66" y="85"/>
      <point x="108" y="46"/>
      <point x="171" y="46" type="curve" smooth="yes"/>
      <point x="247" y="46"/>
      <point x="315" y="119"/>
      <point x="331" y="207" type="curve" smooth="yes"/>
    </contour>
  </outline>
</glyph>
<glyph name="bullet" format="1">
  <advance width="317"/>
  <outline>
    <contour>
      <point x="251" y="379" type="curve" smooth="yes"/>
      <point x="251" y="328"/>
      <point x="209" y="286"/>
      <point x="158" y="286" type="curve" smooth="yes"/>
      <point x="107" y="286"/>
      <point x="66" y="328"/>
      <point x="66" y="379" type="curve" smooth="yes"/>
      <point x="66" y="430"/>
      <point x="107" y="472"/>
      <point x="158" y="472" type="curve" smooth="yes"/>
      <point x="209" y="472"/>
      <point x="251" y="430"/>
    </contour>
  </outline>
</glyph>
<glyph name="f_i" format="1">
  <advance width="406"/>
  <outline>
    <contour>
      <point x="390" y="608" type="line"/>
      <point x="373" y="512" type="line"/>
      <point x="309" y="512" type="line"/>
      <point x="326" y="608" type="line"/>
    </contour>
    <contour>
      <point x="278" y="727" type="curve"/>
      <point x="266" y="671" type="line"/>
      <point x="262" y="673"/>
      <point x="240" y="674"/>
      <point x="231" y="674" type="curve" smooth="yes"/>
      <point x="203" y="674"/>
      <point x="185" y="654"/>
      <point x="175" y="597" type="curve" smooth="yes"/>
      <point x="142" y="408" type="line"/>
      <point x="218" y="408" type="line"/>
      <point x="208" y="350" type="line"/>
      <point x="132" y="350" type="line"/>
      <point x="39" y="-179" type="line"/>
      <point x="-25" y="-179" type="line"/>
      <point x="68" y="350" type="line"/>
      <point x="7" y="350" type="line"/>
      <point x="17" y="408" type="line"/>
      <point x="79" y="408" type="line"/>
      <point x="115" y="617" type="line" smooth="yes"/>
      <point x="129" y="699"/>
      <point x="177" y="731"/>
      <point x="228" y="731" type="curve" smooth="yes"/>
      <point x="243" y="731"/>
      <point x="270" y="730"/>
    </contour>
    <contour>
      <point x="355" y="408" type="line"/>
      <point x="283" y="0" type="line"/>
      <point x="219" y="0" type="line"/>
      <point x="291" y="408" type="line"/>
    </contour>
  </outline>
</glyph>
<glyph name="macron" format="1">
  <advance width="469"/>
  <outline>
    <contour>
      <point x="401" y="544" type="line"/>
      <point x="393" y="493" type="line"/>
      <point x="107" y="493" type="line"/>
      <point x="115" y="544" type="line"/>
    </contour>
  </outline>
</glyph>
<glyph name="onesuperior" format="1">
  <advance width="291"/>
  <outline>
    <contour>
      <point x="122" y="335" type="line"/>
      <point x="176" y="643" type="line"/>
      <point x="162" y="624"/>
      <point x="129" y="611"/>
      <point x="101" y="608" type="curve"/>
      <point x="112" y="667" type="line"/>
      <point x="150" y="672"/>
      <point x="183" y="694"/>
      <point x="206" y="730" type="curve"/>
      <point x="251" y="730" type="line"/>
      <point x="181" y="335" type="line"/>
    </contour>
  </outline>
</glyph>
<glyph name="threesuperior" format="1">
  <advance width="381"/>
  <outline>
    <contour>
      <point x="289" y="552" type="curve"/>
      <point x="325" y="538"/>
      <point x="341" y="508"/>
      <point x="341" y="476" type="curve" smooth="yes"/>
      <point x="341" y="405"/>
      <point x="286" y="339"/>
      <point x="189" y="339" type="curve" smooth="yes"/>
      <point x="129" y="339"/>
      <point x="87" y="361"/>
      <point x="56" y="404" type="curve"/>
      <point x="99" y="446" type="line"/>
      <point x="128" y="407"/>
      <point x="155" y="394"/>
      <point x="193" y="394" type="curve" smooth="yes"/>
      <point x="246" y="394"/>
      <point x="281" y="429"/>
      <point x="281" y="474" type="curve" smooth="yes"/>
      <point x="281" y="506"/>
      <point x="255" y="526"/>
      <point x="212" y="526" type="curve" smooth="yes"/>
      <point x="165" y="526" type="line"/>
      <point x="176" y="581" type="line"/>
      <point x="219" y="581" type="line" smooth="yes"/>
      <point x="265" y="581"/>
      <point x="298" y="605"/>
      <point x="298" y="642" type="curve" smooth="yes"/>
      <point x="298" y="665"/>
      <point x="282" y="684"/>
      <point x="245" y="684" type="curve" smooth="yes"/>
      <point x="209" y="684"/>
      <point x="184" y="665"/>
      <point x="160" y="636" type="curve"/>
      <point x="113" y="667" type="line"/>
      <point x="149" y="711"/>
      <point x="190" y="740"/>
      <point x="250" y="740" type="curve" smooth="yes"/>
      <point x="321" y="740"/>
      <point x="358" y="698"/>
      <point x="358" y="651" type="curve" smooth="yes"/>
      <point x="358" y="604"/>
      <point x="334" y="568"/>
    </contour>
  </outline>
</glyph>
